<?xml version="1.0" encoding="UTF-8"?>
<svg xmlns="http://www.w3.org/2000/svg" width="286" height="205" viewBox="0 0 286 205" fill="none"><g data-node-id="169:595" filter="url(#filter0_dd_169_595)"><path d="M7 20C7 11.1634 14.1634 4 23 4H263C271.837 4 279 11.1634 279 20V179C279 187.837 271.837 195 263 195H23C14.1634 195 7 187.837 7 179V20Z" fill="white"/><g data-node-id="I169:595;5905:9007"><g data-node-id="I169:595;5905:9001"><path d="M189 40C189 33.3726 194.373 28 201 28H243C249.627 28 255 33.3726 255 40V82C255 88.6274 249.627 94 243 94H201C194.373 94 189 88.6274 189 82V40Z" fill="#E4FAEF"/><g data-node-id="I169:595;5905:9002"><path data-node-id="I169:595;5905:9002;5905:9071" d="M230.312 55.2955V54.4688C230.312 50.7459 224.697 47.9375 217.25 47.9375C209.803 47.9375 204.188 50.7459 204.188 54.4688V60.4062C204.188 63.5071 208.084 65.9712 213.688 66.7089V67.5312C213.688 71.2541 219.303 74.0625 226.75 74.0625C234.197 74.0625 239.812 71.2541 239.812 67.5312V61.5938C239.812 58.5211 236.039 56.0541 230.312 55.2955ZM237.438 61.5938C237.438 63.5561 232.867 65.75 226.75 65.75C226.196 65.75 225.647 65.7307 225.105 65.6951C228.307 64.5284 230.312 62.6328 230.312 60.4062V57.6958C234.746 58.3563 237.438 60.1495 237.438 61.5938ZM213.688 64.3027V60.7714C214.869 60.9253 216.059 61.0017 217.25 61C218.441 61.0017 219.631 60.9253 220.812 60.7714V64.3027C219.633 64.477 218.442 64.5638 217.25 64.5625C216.058 64.5638 214.867 64.477 213.688 64.3027ZM227.938 58.3177V60.4062C227.938 61.6516 226.095 62.9891 223.188 63.801V60.332C225.104 59.8674 226.726 59.1757 227.938 58.3177ZM217.25 50.3125C223.367 50.3125 227.938 52.5064 227.938 54.4688C227.938 56.4311 223.367 58.625 217.25 58.625C211.133 58.625 206.562 56.4311 206.562 54.4688C206.562 52.5064 211.133 50.3125 217.25 50.3125ZM206.562 60.4062V58.3177C207.774 59.1757 209.396 59.8674 211.312 60.332V63.801C208.405 62.9891 206.562 61.6516 206.562 60.4062ZM216.062 67.5312V66.9123C216.453 66.9271 216.848 66.9375 217.25 66.9375C217.826 66.9375 218.389 66.9182 218.941 66.8855C219.554 67.1051 220.179 67.2915 220.812 67.4437V70.926C217.905 70.1141 216.062 68.7766 216.062 67.5312ZM223.188 71.4277V67.8875C224.368 68.0462 225.559 68.1256 226.75 68.125C227.941 68.1267 229.131 68.0503 230.312 67.8964V71.4277C227.95 71.7741 225.55 71.7741 223.188 71.4277ZM232.688 70.926V67.457C234.604 66.9924 236.226 66.3007 237.438 65.4427V67.5312C237.438 68.7766 235.595 70.1141 232.688 70.926Z" fill="#259678"/></g></g></g><g data-node-id="I169:595;5905:9246"><g data-node-id="I169:595;5905:9247"><path data-node-id="I169:595;5905:9247;5905:9077" d="M53.4999 159V165C53.4999 165.199 53.4209 165.39 53.2803 165.53C53.1396 165.671 52.9488 165.75 52.7499 165.75H46.7499C46.551 165.75 46.3603 165.671 46.2196 165.53C46.0789 165.39 45.9999 165.199 45.9999 165C45.9999 164.801 46.0789 164.61 46.2196 164.47C46.3603 164.329 46.551 164.25 46.7499 164.25H50.9396L43.7499 157.06L40.5306 160.281C40.4609 160.35 40.3782 160.406 40.2871 160.443C40.1961 160.481 40.0985 160.501 39.9999 160.501C39.9014 160.501 39.8038 160.481 39.7127 160.443C39.6217 160.406 39.539 160.35 39.4693 160.281L32.7193 153.531C32.5786 153.39 32.4995 153.199 32.4995 153C32.4995 152.801 32.5786 152.61 32.7193 152.469C32.86 152.329 33.0509 152.25 33.2499 152.25C33.449 152.25 33.6398 152.329 33.7806 152.469L39.9999 158.69L43.2193 155.469C43.289 155.4 43.3717 155.344 43.4627 155.307C43.5538 155.269 43.6514 155.249 43.7499 155.249C43.8485 155.249 43.9461 155.269 44.0371 155.307C44.1282 155.344 44.2109 155.4 44.2806 155.469L51.9999 163.19V159C51.9999 158.801 52.0789 158.61 52.2196 158.47C52.3603 158.329 52.551 158.25 52.7499 158.25C52.9488 158.25 53.1396 158.329 53.2803 158.47C53.4209 158.61 53.4999 158.801 53.4999 159Z" fill="#D52A06"/></g><path data-node-id="I169:595;5905:9248" d="M67.2045 165V163.977L71.0455 159.773C71.4962 159.28 71.8674 158.852 72.1591 158.489C72.4508 158.121 72.6667 157.777 72.8068 157.455C72.9508 157.129 73.0227 156.788 73.0227 156.432C73.0227 156.023 72.9242 155.669 72.7273 155.369C72.5341 155.07 72.2689 154.839 71.9318 154.676C71.5947 154.513 71.2159 154.432 70.7955 154.432C70.3485 154.432 69.9583 154.525 69.625 154.71C69.2955 154.892 69.0398 155.148 68.858 155.477C68.6799 155.807 68.5909 156.193 68.5909 156.636H67.25C67.25 155.955 67.4072 155.356 67.7216 154.841C68.036 154.326 68.464 153.924 69.0057 153.636C69.5511 153.348 70.1629 153.205 70.8409 153.205C71.5227 153.205 72.1269 153.348 72.6534 153.636C73.1799 153.924 73.5928 154.312 73.892 154.801C74.1913 155.29 74.3409 155.833 74.3409 156.432C74.3409 156.86 74.2633 157.278 74.108 157.688C73.9564 158.093 73.6913 158.545 73.3125 159.045C72.9375 159.542 72.4167 160.148 71.75 160.864L69.1364 163.659V163.75H74.5455V165H67.2045ZM82.9039 162.818V162.205C82.9039 161.78 82.991 161.392 83.1652 161.04C83.3433 160.684 83.6008 160.4 83.938 160.188C84.2789 159.972 84.6917 159.864 85.1766 159.864C85.669 159.864 86.0819 159.972 86.4152 160.188C86.7486 160.4 87.0005 160.684 87.1709 161.04C87.3414 161.392 87.4266 161.78 87.4266 162.205V162.818C87.4266 163.242 87.3395 163.633 87.1652 163.989C86.9948 164.341 86.741 164.625 86.4039 164.841C86.0705 165.053 85.6614 165.159 85.1766 165.159C84.6842 165.159 84.2694 165.053 83.9323 164.841C83.5952 164.625 83.3395 164.341 83.1652 163.989C82.991 163.633 82.9039 163.242 82.9039 162.818ZM84.063 162.205V162.818C84.063 163.17 84.1463 163.487 84.313 163.767C84.4796 164.044 84.7675 164.182 85.1766 164.182C85.5743 164.182 85.8546 164.044 86.0175 163.767C86.1842 163.487 86.2675 163.17 86.2675 162.818V162.205C86.2675 161.852 86.188 161.538 86.0289 161.261C85.8698 160.981 85.5857 160.841 85.1766 160.841C84.7789 160.841 84.4929 160.981 84.3186 161.261C84.1482 161.538 84.063 161.852 84.063 162.205ZM77.1084 156.159V155.545C77.1084 155.121 77.1955 154.733 77.3698 154.381C77.5478 154.025 77.8054 153.741 78.1425 153.528C78.4834 153.312 78.8963 153.205 79.3811 153.205C79.8736 153.205 80.2864 153.312 80.6198 153.528C80.9531 153.741 81.205 154.025 81.3755 154.381C81.5459 154.733 81.6311 155.121 81.6311 155.545V156.159C81.6311 156.583 81.544 156.973 81.3698 157.33C81.1993 157.682 80.9455 157.966 80.6084 158.182C80.2751 158.394 79.866 158.5 79.3811 158.5C78.8887 158.5 78.4739 158.394 78.1368 158.182C77.7997 157.966 77.544 157.682 77.3698 157.33C77.1955 156.973 77.1084 156.583 77.1084 156.159ZM78.2675 155.545V156.159C78.2675 156.511 78.3508 156.828 78.5175 157.108C78.6842 157.384 78.972 157.523 79.3811 157.523C79.7789 157.523 80.0592 157.384 80.222 157.108C80.3887 156.828 80.472 156.511 80.472 156.159V155.545C80.472 155.193 80.3925 154.879 80.2334 154.602C80.0743 154.322 79.7902 154.182 79.3811 154.182C78.9834 154.182 78.6974 154.322 78.5232 154.602C78.3527 154.879 78.2675 155.193 78.2675 155.545ZM77.5402 165L85.5402 153.364H86.8357L78.8357 165H77.5402Z" fill="#D52A06"/><path data-node-id="I169:595;5905:9249" d="M105 165H101.409V153.364H105.159C106.288 153.364 107.254 153.597 108.057 154.062C108.86 154.525 109.475 155.189 109.903 156.057C110.331 156.92 110.545 157.955 110.545 159.159C110.545 160.371 110.33 161.415 109.898 162.29C109.466 163.161 108.837 163.831 108.011 164.301C107.186 164.767 106.182 165 105 165ZM102.818 163.75H104.909C105.871 163.75 106.669 163.564 107.301 163.193C107.934 162.822 108.405 162.294 108.716 161.608C109.027 160.922 109.182 160.106 109.182 159.159C109.182 158.22 109.028 157.411 108.722 156.733C108.415 156.051 107.956 155.528 107.347 155.165C106.737 154.797 105.977 154.614 105.068 154.614H102.818V163.75ZM116.353 165.182C115.565 165.182 114.874 164.994 114.279 164.619C113.688 164.244 113.226 163.72 112.892 163.045C112.563 162.371 112.398 161.583 112.398 160.682C112.398 159.773 112.563 158.979 112.892 158.301C113.226 157.623 113.688 157.097 114.279 156.722C114.874 156.347 115.565 156.159 116.353 156.159C117.141 156.159 117.83 156.347 118.421 156.722C119.016 157.097 119.478 157.623 119.807 158.301C120.141 158.979 120.307 159.773 120.307 160.682C120.307 161.583 120.141 162.371 119.807 163.045C119.478 163.72 119.016 164.244 118.421 164.619C117.83 164.994 117.141 165.182 116.353 165.182ZM116.353 163.977C116.951 163.977 117.444 163.824 117.83 163.517C118.216 163.21 118.502 162.807 118.688 162.307C118.874 161.807 118.966 161.265 118.966 160.682C118.966 160.098 118.874 159.555 118.688 159.051C118.502 158.547 118.216 158.14 117.83 157.83C117.444 157.519 116.951 157.364 116.353 157.364C115.754 157.364 115.262 157.519 114.875 157.83C114.489 158.14 114.203 158.547 114.017 159.051C113.832 159.555 113.739 160.098 113.739 160.682C113.739 161.265 113.832 161.807 114.017 162.307C114.203 162.807 114.489 163.21 114.875 163.517C115.262 163.824 115.754 163.977 116.353 163.977ZM124.115 165L121.455 156.273H122.865L124.751 162.955H124.842L126.705 156.273H128.137L129.978 162.932H130.069L131.955 156.273H133.365L130.705 165H129.387L127.478 158.295H127.342L125.433 165H124.115ZM136.558 159.75V165H135.217V156.273H136.513V157.636H136.626C136.831 157.193 137.142 156.837 137.558 156.568C137.975 156.295 138.513 156.159 139.172 156.159C139.763 156.159 140.28 156.28 140.723 156.523C141.166 156.761 141.511 157.125 141.757 157.614C142.003 158.098 142.126 158.712 142.126 159.455V165H140.785V159.545C140.785 158.86 140.607 158.326 140.251 157.943C139.895 157.557 139.407 157.364 138.785 157.364C138.357 157.364 137.975 157.456 137.638 157.642C137.304 157.828 137.041 158.098 136.848 158.455C136.655 158.811 136.558 159.242 136.558 159.75ZM153.123 156.273V157.409H148.418V156.273H153.123ZM149.828 165V155.068C149.828 154.568 149.945 154.152 150.18 153.818C150.415 153.485 150.72 153.235 151.095 153.068C151.47 152.902 151.865 152.818 152.282 152.818C152.612 152.818 152.881 152.845 153.089 152.898C153.297 152.951 153.453 153 153.555 153.045L153.168 154.205C153.1 154.182 153.006 154.153 152.884 154.119C152.767 154.085 152.612 154.068 152.418 154.068C151.975 154.068 151.655 154.18 151.458 154.403C151.265 154.627 151.168 154.955 151.168 155.386V165H149.828ZM155.082 165V156.273H156.378V157.591H156.469C156.628 157.159 156.916 156.809 157.332 156.54C157.749 156.271 158.219 156.136 158.741 156.136C158.84 156.136 158.963 156.138 159.111 156.142C159.258 156.146 159.37 156.152 159.446 156.159V157.523C159.4 157.511 159.296 157.494 159.133 157.472C158.974 157.445 158.806 157.432 158.628 157.432C158.203 157.432 157.825 157.521 157.491 157.699C157.162 157.873 156.9 158.116 156.707 158.426C156.518 158.733 156.423 159.083 156.423 159.477V165H155.082ZM164.395 165.182C163.607 165.182 162.916 164.994 162.321 164.619C161.73 164.244 161.268 163.72 160.935 163.045C160.605 162.371 160.441 161.583 160.441 160.682C160.441 159.773 160.605 158.979 160.935 158.301C161.268 157.623 161.73 157.097 162.321 156.722C162.916 156.347 163.607 156.159 164.395 156.159C165.183 156.159 165.873 156.347 166.463 156.722C167.058 157.097 167.52 157.623 167.85 158.301C168.183 158.979 168.35 159.773 168.35 160.682C168.35 161.583 168.183 162.371 167.85 163.045C167.52 163.72 167.058 164.244 166.463 164.619C165.873 164.994 165.183 165.182 164.395 165.182ZM164.395 163.977C164.994 163.977 165.486 163.824 165.873 163.517C166.259 163.21 166.545 162.807 166.73 162.307C166.916 161.807 167.009 161.265 167.009 160.682C167.009 160.098 166.916 159.555 166.73 159.051C166.545 158.547 166.259 158.14 165.873 157.83C165.486 157.519 164.994 157.364 164.395 157.364C163.797 157.364 163.304 157.519 162.918 157.83C162.532 158.14 162.246 158.547 162.06 159.051C161.874 159.555 161.782 160.098 161.782 160.682C161.782 161.265 161.874 161.807 162.06 162.307C162.246 162.807 162.532 163.21 162.918 163.517C163.304 163.824 163.797 163.977 164.395 163.977ZM170.477 165V156.273H171.772V157.636H171.886C172.068 157.17 172.361 156.809 172.766 156.551C173.172 156.29 173.658 156.159 174.227 156.159C174.802 156.159 175.282 156.29 175.664 156.551C176.051 156.809 176.352 157.17 176.568 157.636H176.658C176.882 157.186 177.217 156.828 177.664 156.562C178.111 156.294 178.647 156.159 179.272 156.159C180.052 156.159 180.691 156.403 181.187 156.892C181.683 157.377 181.931 158.133 181.931 159.159V165H180.59V159.159C180.59 158.515 180.414 158.055 180.062 157.778C179.71 157.502 179.295 157.364 178.818 157.364C178.204 157.364 177.729 157.549 177.391 157.92C177.054 158.288 176.886 158.754 176.886 159.318V165H175.522V159.023C175.522 158.527 175.361 158.127 175.039 157.824C174.717 157.517 174.302 157.364 173.795 157.364C173.446 157.364 173.121 157.456 172.818 157.642C172.518 157.828 172.276 158.085 172.09 158.415C171.908 158.741 171.818 159.117 171.818 159.545V165H170.477ZM190.384 153.364V165H189.043V153.364H190.384ZM195.488 165.205C194.935 165.205 194.433 165.1 193.982 164.892C193.532 164.68 193.174 164.375 192.908 163.977C192.643 163.576 192.511 163.091 192.511 162.523C192.511 162.023 192.609 161.617 192.806 161.307C193.003 160.992 193.266 160.746 193.596 160.568C193.925 160.39 194.289 160.258 194.687 160.17C195.088 160.08 195.492 160.008 195.897 159.955C196.427 159.886 196.857 159.835 197.187 159.801C197.52 159.763 197.763 159.701 197.914 159.614C198.069 159.527 198.147 159.375 198.147 159.159V159.114C198.147 158.553 197.994 158.117 197.687 157.807C197.384 157.496 196.924 157.341 196.306 157.341C195.666 157.341 195.164 157.481 194.8 157.761C194.437 158.042 194.181 158.341 194.033 158.659L192.761 158.205C192.988 157.674 193.291 157.261 193.67 156.966C194.052 156.667 194.469 156.458 194.92 156.341C195.374 156.22 195.821 156.159 196.261 156.159C196.541 156.159 196.863 156.193 197.227 156.261C197.594 156.326 197.948 156.46 198.289 156.665C198.634 156.869 198.92 157.178 199.147 157.591C199.374 158.004 199.488 158.557 199.488 159.25V165H198.147V163.818H198.079C197.988 164.008 197.836 164.21 197.624 164.426C197.412 164.642 197.13 164.826 196.778 164.977C196.425 165.129 195.996 165.205 195.488 165.205ZM195.692 164C196.223 164 196.67 163.896 197.033 163.688C197.401 163.479 197.677 163.21 197.863 162.881C198.052 162.551 198.147 162.205 198.147 161.841V160.614C198.09 160.682 197.965 160.744 197.772 160.801C197.583 160.854 197.363 160.902 197.113 160.943C196.867 160.981 196.626 161.015 196.391 161.045C196.16 161.072 195.973 161.095 195.829 161.114C195.48 161.159 195.155 161.233 194.852 161.335C194.552 161.434 194.31 161.583 194.124 161.784C193.942 161.981 193.852 162.25 193.852 162.591C193.852 163.057 194.024 163.409 194.369 163.648C194.717 163.883 195.158 164 195.692 164ZM208.197 158.227L206.993 158.568C206.917 158.367 206.805 158.172 206.657 157.983C206.514 157.79 206.317 157.631 206.067 157.506C205.817 157.381 205.496 157.318 205.106 157.318C204.572 157.318 204.127 157.441 203.771 157.688C203.419 157.93 203.243 158.239 203.243 158.614C203.243 158.947 203.364 159.21 203.606 159.403C203.849 159.597 204.228 159.758 204.743 159.886L206.038 160.205C206.818 160.394 207.4 160.684 207.782 161.074C208.165 161.46 208.356 161.958 208.356 162.568C208.356 163.068 208.212 163.515 207.924 163.909C207.64 164.303 207.243 164.614 206.731 164.841C206.22 165.068 205.625 165.182 204.947 165.182C204.057 165.182 203.32 164.989 202.737 164.602C202.154 164.216 201.784 163.652 201.629 162.909L202.902 162.591C203.023 163.061 203.252 163.413 203.589 163.648C203.93 163.883 204.375 164 204.924 164C205.549 164 206.046 163.867 206.413 163.602C206.784 163.333 206.97 163.011 206.97 162.636C206.97 162.333 206.864 162.08 206.652 161.875C206.44 161.667 206.114 161.511 205.674 161.409L204.22 161.068C203.421 160.879 202.834 160.585 202.459 160.188C202.087 159.786 201.902 159.284 201.902 158.682C201.902 158.189 202.04 157.754 202.317 157.375C202.597 156.996 202.978 156.699 203.459 156.483C203.943 156.267 204.493 156.159 205.106 156.159C205.97 156.159 206.648 156.348 207.14 156.727C207.637 157.106 207.989 157.606 208.197 158.227ZM214.25 156.273V157.409H209.728V156.273H214.25ZM211.046 154.182H212.387V162.5C212.387 162.879 212.442 163.163 212.551 163.352C212.665 163.538 212.809 163.663 212.983 163.727C213.161 163.788 213.349 163.818 213.546 163.818C213.693 163.818 213.815 163.811 213.909 163.795C214.004 163.777 214.08 163.761 214.137 163.75L214.409 164.955C214.318 164.989 214.192 165.023 214.029 165.057C213.866 165.095 213.659 165.114 213.409 165.114C213.031 165.114 212.659 165.032 212.296 164.869C211.936 164.706 211.637 164.458 211.398 164.125C211.163 163.792 211.046 163.371 211.046 162.864V154.182ZM222.268 159.75V165H220.927V153.364H222.268V157.636H222.382C222.586 157.186 222.893 156.828 223.302 156.562C223.715 156.294 224.264 156.159 224.95 156.159C225.545 156.159 226.066 156.278 226.512 156.517C226.959 156.752 227.306 157.114 227.552 157.602C227.802 158.087 227.927 158.705 227.927 159.455V165H226.586V159.545C226.586 158.852 226.406 158.316 226.047 157.938C225.691 157.555 225.196 157.364 224.564 157.364C224.124 157.364 223.73 157.456 223.382 157.642C223.037 157.828 222.764 158.098 222.564 158.455C222.367 158.811 222.268 159.242 222.268 159.75ZM234.006 165.182C233.218 165.182 232.527 164.994 231.932 164.619C231.341 164.244 230.879 163.72 230.546 163.045C230.216 162.371 230.051 161.583 230.051 160.682C230.051 159.773 230.216 158.979 230.546 158.301C230.879 157.623 231.341 157.097 231.932 156.722C232.527 156.347 233.218 156.159 234.006 156.159C234.794 156.159 235.483 156.347 236.074 156.722C236.669 157.097 237.131 157.623 237.46 158.301C237.794 158.979 237.96 159.773 237.96 160.682C237.96 161.583 237.794 162.371 237.46 163.045C237.131 163.72 236.669 164.244 236.074 164.619C235.483 164.994 234.794 165.182 234.006 165.182ZM234.006 163.977C234.604 163.977 235.097 163.824 235.483 163.517C235.869 163.21 236.155 162.807 236.341 162.307C236.527 161.807 236.619 161.265 236.619 160.682C236.619 160.098 236.527 159.555 236.341 159.051C236.155 158.547 235.869 158.14 235.483 157.83C235.097 157.519 234.604 157.364 234.006 157.364C233.407 157.364 232.915 157.519 232.529 157.83C232.142 158.14 231.856 158.547 231.671 159.051C231.485 159.555 231.392 160.098 231.392 160.682C231.392 161.265 231.485 161.807 231.671 162.307C231.856 162.807 232.142 163.21 232.529 163.517C232.915 163.824 233.407 163.977 234.006 163.977ZM245.587 161.432V156.273H246.928V165H245.587V163.523H245.496C245.292 163.966 244.974 164.343 244.542 164.653C244.11 164.96 243.565 165.114 242.905 165.114C242.36 165.114 241.875 164.994 241.451 164.756C241.027 164.513 240.693 164.15 240.451 163.665C240.208 163.176 240.087 162.561 240.087 161.818V156.273H241.428V161.727C241.428 162.364 241.606 162.871 241.962 163.25C242.322 163.629 242.78 163.818 243.337 163.818C243.671 163.818 244.01 163.733 244.354 163.562C244.703 163.392 244.994 163.131 245.229 162.778C245.468 162.426 245.587 161.977 245.587 161.432ZM249.464 165V156.273H250.76V157.591H250.851C251.01 157.159 251.297 156.809 251.714 156.54C252.131 156.271 252.601 156.136 253.123 156.136C253.222 156.136 253.345 156.138 253.493 156.142C253.64 156.146 253.752 156.152 253.828 156.159V157.523C253.782 157.511 253.678 157.494 253.515 157.472C253.356 157.445 253.188 157.432 253.01 157.432C252.585 157.432 252.207 157.521 251.873 157.699C251.544 157.873 251.282 158.116 251.089 158.426C250.9 158.733 250.805 159.083 250.805 159.477V165H249.464Z" fill="#202020"/></g></g><defs><filter id="filter0_dd_169_595" x="0" y="0" width="286" height="205" filterUnits="userSpaceOnUse" color-interpolation-filters="sRGB"><feFlood flood-opacity="0" result="BackgroundImageFix"/><feColorMatrix in="SourceAlpha" type="matrix" values="0 0 0 0 0 0 0 0 0 0 0 0 0 0 0 0 0 0 127 0" result="hardAlpha"/><feMorphology radius="1" operator="erode" in="SourceAlpha" result="effect1_dropShadow_169_595"/><feOffset dy="3"/><feGaussianBlur stdDeviation="4"/><feColorMatrix type="matrix" values="0 0 0 0 0.196078 0 0 0 0 0.196078 0 0 0 0 0.278431 0 0 0 0.05 0"/><feBlend mode="normal" in2="BackgroundImageFix" result="effect1_dropShadow_169_595"/><feColorMatrix in="SourceAlpha" type="matrix" values="0 0 0 0 0 0 0 0 0 0 0 0 0 0 0 0 0 0 127 0" result="hardAlpha"/><feOffset/><feGaussianBlur stdDeviation="0.5"/><feColorMatrix type="matrix" values="0 0 0 0 0.0470588 0 0 0 0 0.101961 0 0 0 0 0.294118 0 0 0 0.24 0"/><feBlend mode="normal" in2="effect1_dropShadow_169_595" result="effect2_dropShadow_169_595"/><feBlend mode="normal" in="SourceGraphic" in2="effect2_dropShadow_169_595" result="shape"/></filter></defs></svg>
