<?xml version="1.0" encoding="UTF-8"?>
<svg xmlns="http://www.w3.org/2000/svg" width="195" height="68" viewBox="0 0 195 68" fill="none"><g data-node-id="278:1604"><rect width="195" height="68" rx="12" fill="#F9AC52"/><g data-node-id="278:1605"><path data-node-id="278:1611" d="M38.8271 26.1664C39.5541 26.8906 40.0039 27.8928 40.0039 29C40.0039 30.1072 39.5541 31.1094 38.8271 31.8336M25.1839 26.1664C24.457 26.8906 24.0071 27.8928 24.0071 29C24.0071 30.1072 24.457 31.1094 25.1839 31.8336M41.24 37C41.715 37.5308 42.0039 38.2317 42.0039 39V40C42.0039 40.7684 41.715 41.4693 41.24 42M22.7639 37C22.2889 37.5308 22 38.2317 22 39V40C22 40.7684 22.2889 41.4693 22.7639 42M36.0039 29C36.0039 26.7909 34.213 25 32.0039 25C29.7948 25 28.0039 26.7909 28.0039 29C28.0039 31.2091 29.7948 33 32.0039 33C34.213 33 36.0039 31.2091 36.0039 29ZM25.0039 40V39C25.0039 37.3431 26.347 36 28.0039 36H36.0039C37.6608 36 39.0039 37.3431 39.0039 39V40C39.0039 41.6569 37.6608 43 36.0039 43H28.0039C26.347 43 25.0039 41.6569 25.0039 40Z" stroke="black" stroke-width="1.5" stroke-linecap="round" stroke-linejoin="round"/></g><g data-node-id="278:1608"><path data-node-id="278:1609" d="M171 29.5L175.5 34L171 38.5" stroke="black" stroke-width="2" stroke-linecap="round" stroke-linejoin="round"/></g></g></svg>
