<?xml version="1.0" encoding="UTF-8"?>
<svg xmlns="http://www.w3.org/2000/svg" width="355" height="228" viewBox="0 0 355 228" fill="none"><g data-node-id="156:529" filter="url(#filter0_ddddd_156_529)"><rect x="80" y="65" width="195" height="68" rx="12" fill="#419BB8"/><g data-node-id="156:536"><path data-node-id="156:537" d="M101 94.5L105.5 99L101 103.5" stroke="white" stroke-width="2" stroke-linecap="round" stroke-linejoin="round"/></g><g data-node-id="156:530"><g data-node-id="156:531"><path data-node-id="156:532" d="M198 95.6035V108.41H190.421V103.674H187.579V108.41H180V95.6035L189 89.25L198 95.6035ZM181.895 96.5859V106.516H185.685V101.779H192.315V106.516H196.105V96.5859L189 91.5713L181.895 96.5859ZM189 94.6738C190.566 94.6738 191.842 95.9466 191.842 97.5156C191.842 99.0817 190.566 100.357 189 100.357C187.434 100.357 186.158 99.0817 186.158 97.5156C186.158 95.9496 187.434 94.6738 189 94.6738ZM189 96.0947C188.216 96.0947 187.579 96.7312 187.579 97.5156C187.579 98.3002 188.215 98.9365 189 98.9365C189.785 98.9365 190.421 98.3002 190.421 97.5156C190.421 96.7312 189.784 96.0947 189 96.0947Z" fill="white"/></g></g></g><defs><filter id="filter0_ddddd_156_529" x="0" y="0" width="355" height="228" filterUnits="userSpaceOnUse" color-interpolation-filters="sRGB"><feFlood flood-opacity="0" result="BackgroundImageFix"/><feColorMatrix in="SourceAlpha" type="matrix" values="0 0 0 0 0 0 0 0 0 0 0 0 0 0 0 0 0 0 127 0" result="hardAlpha"/><feOffset dy="0.515234"/><feGaussianBlur stdDeviation="6.06125"/><feColorMatrix type="matrix" values="0 0 0 0 0 0 0 0 0 0.486275 0 0 0 0 0.517647 0 0 0 0.0403024 0"/><feBlend mode="normal" in2="BackgroundImageFix" result="effect1_dropShadow_156_529"/><feColorMatrix in="SourceAlpha" type="matrix" values="0 0 0 0 0 0 0 0 0 0 0 0 0 0 0 0 0 0 127 0" result="hardAlpha"/><feOffset dy="1.30307"/><feGaussianBlur stdDeviation="10.9104"/><feColorMatrix type="matrix" values="0 0 0 0 0 0 0 0 0 0.486275 0 0 0 0 0.517647 0 0 0 0.0576822 0"/><feBlend mode="normal" in2="effect1_dropShadow_156_529" result="effect2_dropShadow_156_529"/><feColorMatrix in="SourceAlpha" type="matrix" values="0 0 0 0 0 0 0 0 0 0 0 0 0 0 0 0 0 0 127 0" result="hardAlpha"/><feOffset dy="2.65813"/><feGaussianBlur stdDeviation="15.0817"/><feColorMatrix type="matrix" values="0 0 0 0 0 0 0 0 0 0.486275 0 0 0 0 0.517647 0 0 0 0.0723178 0"/><feBlend mode="normal" in2="effect2_dropShadow_156_529" result="effect3_dropShadow_156_529"/><feColorMatrix in="SourceAlpha" type="matrix" values="0 0 0 0 0 0 0 0 0 0 0 0 0 0 0 0 0 0 127 0" result="hardAlpha"/><feOffset dy="5.47525"/><feGaussianBlur stdDeviation="20.4566"/><feColorMatrix type="matrix" values="0 0 0 0 0 0 0 0 0 0.486275 0 0 0 0 0.517647 0 0 0 0.0896976 0"/><feBlend mode="normal" in2="effect3_dropShadow_156_529" result="effect4_dropShadow_156_529"/><feColorMatrix in="SourceAlpha" type="matrix" values="0 0 0 0 0 0 0 0 0 0 0 0 0 0 0 0 0 0 127 0" result="hardAlpha"/><feOffset dy="15"/><feGaussianBlur stdDeviation="40"/><feColorMatrix type="matrix" values="0 0 0 0 0 0 0 0 0 0.486275 0 0 0 0 0.517647 0 0 0 0.13 0"/><feBlend mode="normal" in2="effect4_dropShadow_156_529" result="effect5_dropShadow_156_529"/><feBlend mode="normal" in="SourceGraphic" in2="effect5_dropShadow_156_529" result="shape"/></filter></defs></svg>
