<?xml version="1.0" encoding="UTF-8"?>
<svg xmlns="http://www.w3.org/2000/svg" width="166" height="57" viewBox="0 0 166 57" fill="none"><g data-node-id="352:1046"><rect x="0.5" y="0.5" width="165" height="56" rx="8" fill="white"/><rect x="0.5" y="0.5" width="165" height="56" rx="8" stroke="#CCCCCC"/><g data-node-id="352:1047"><path data-node-id="352:1048" d="M22.948 24.18C22.34 24.18 21.7907 24.2867 21.3 24.5C20.8093 24.7027 20.3933 25.0067 20.052 25.412C19.7107 25.8067 19.4493 26.292 19.268 26.868C19.0867 27.4333 18.996 28.0733 18.996 28.788C18.996 29.7267 19.14 30.5427 19.428 31.236C19.7267 31.9293 20.164 32.4627 20.74 32.836C21.3267 33.2093 22.0573 33.396 22.932 33.396C23.4333 33.396 23.908 33.3533 24.356 33.268C24.804 33.1827 25.2413 33.076 25.668 32.948V34.196C25.2413 34.356 24.7987 34.4733 24.34 34.548C23.892 34.6227 23.3533 34.66 22.724 34.66C21.5613 34.66 20.5907 34.42 19.812 33.94C19.0333 33.46 18.4467 32.7773 18.052 31.892C17.668 31.0067 17.476 29.9667 17.476 28.772C17.476 27.908 17.5933 27.1187 17.828 26.404C18.0733 25.6893 18.4253 25.0707 18.884 24.548C19.3533 24.0253 19.9293 23.6253 20.612 23.348C21.2947 23.06 22.0787 22.916 22.964 22.916C23.5507 22.916 24.116 22.9747 24.66 23.092C25.204 23.2093 25.6893 23.3747 26.116 23.588L25.54 24.804C25.188 24.644 24.7933 24.5 24.356 24.372C23.9293 24.244 23.46 24.18 22.948 24.18ZM29.3774 25.908C29.3774 26.1107 29.3667 26.3187 29.3454 26.532C29.3347 26.7453 29.3187 26.9373 29.2974 27.108H29.3934C29.5747 26.8093 29.804 26.564 30.0814 26.372C30.3587 26.18 30.668 26.036 31.0094 25.94C31.3507 25.8333 31.7027 25.78 32.0654 25.78C32.7587 25.78 33.3347 25.892 33.7934 26.116C34.2627 26.3293 34.6147 26.6653 34.8494 27.124C35.084 27.5827 35.2014 28.18 35.2014 28.916V34.5H33.8094V29.012C33.8094 28.3187 33.6547 27.8013 33.3454 27.46C33.036 27.1187 32.5507 26.948 31.8894 26.948C31.2494 26.948 30.748 27.0707 30.3854 27.316C30.0227 27.5507 29.7614 27.9027 29.6014 28.372C29.452 28.8307 29.3774 29.396 29.3774 30.068V34.5H27.9694V22.34H29.3774V25.908ZM41.172 25.764C41.908 25.764 42.5373 25.924 43.06 26.244C43.5933 26.564 43.9987 27.0173 44.276 27.604C44.564 28.18 44.708 28.8573 44.708 29.636V30.484H38.836C38.8573 31.4547 39.1027 32.196 39.572 32.708C40.052 33.2093 40.7187 33.46 41.572 33.46C42.116 33.46 42.596 33.412 43.012 33.316C43.4387 33.2093 43.876 33.06 44.324 32.868V34.1C43.8867 34.292 43.4547 34.4307 43.028 34.516C42.6013 34.612 42.0947 34.66 41.508 34.66C40.6973 34.66 39.9773 34.4947 39.348 34.164C38.7293 33.8333 38.244 33.3427 37.892 32.692C37.5507 32.0307 37.38 31.2253 37.38 30.276C37.38 29.3373 37.5347 28.532 37.844 27.86C38.164 27.188 38.6067 26.6707 39.172 26.308C39.748 25.9453 40.4147 25.764 41.172 25.764ZM41.156 26.916C40.484 26.916 39.9507 27.1347 39.556 27.572C39.172 27.9987 38.9427 28.596 38.868 29.364H43.236C43.236 28.8733 43.1613 28.4467 43.012 28.084C42.8627 27.7213 42.6333 27.4387 42.324 27.236C42.0253 27.0227 41.636 26.916 41.156 26.916ZM40.66 22.244C40.7773 22.4787 40.9213 22.7453 41.092 23.044C41.2733 23.332 41.46 23.6147 41.652 23.892C41.8547 24.1693 42.036 24.4093 42.196 24.612V24.804H41.252C41.0707 24.6547 40.868 24.4787 40.644 24.276C40.42 24.0627 40.196 23.844 39.972 23.62C39.7587 23.3853 39.5613 23.1613 39.38 22.948C39.2093 22.7347 39.076 22.5533 38.98 22.404V22.244H40.66ZM52.6033 34.676C52.6033 34.484 52.6086 34.26 52.6193 34.004C52.6299 33.748 52.6513 33.5293 52.6833 33.348H52.5873C52.3419 33.7107 52.0006 34.02 51.5633 34.276C51.1366 34.532 50.5819 34.66 49.8993 34.66C48.8646 34.66 48.0219 34.292 47.3713 33.556C46.7313 32.8093 46.4113 31.7 46.4113 30.228C46.4113 29.2467 46.5606 28.4253 46.8593 27.764C47.1579 27.1027 47.5739 26.6067 48.1073 26.276C48.6406 25.9347 49.2539 25.764 49.9473 25.764C50.6193 25.764 51.1686 25.892 51.5953 26.148C52.0219 26.404 52.3633 26.7187 52.6193 27.092H52.6833L52.8913 25.924H54.0113V38.34H52.6033V34.676ZM50.1713 33.492C50.7579 33.492 51.2273 33.3853 51.5793 33.172C51.9419 32.9587 52.2033 32.6333 52.3633 32.196C52.5233 31.748 52.6086 31.1933 52.6193 30.532V30.244C52.6193 29.156 52.4379 28.3347 52.0753 27.78C51.7126 27.2147 51.0673 26.932 50.1393 26.932C49.3713 26.932 48.8006 27.236 48.4273 27.844C48.0539 28.4413 47.8673 29.2467 47.8673 30.26C47.8673 31.2733 48.0539 32.068 48.4273 32.644C48.8113 33.2093 49.3926 33.492 50.1713 33.492ZM63.903 25.924V34.5H62.751L62.543 33.364H62.479C62.2977 33.6627 62.063 33.908 61.775 34.1C61.487 34.292 61.1723 34.4307 60.831 34.516C60.4897 34.612 60.1323 34.66 59.759 34.66C59.0763 34.66 58.5003 34.5533 58.031 34.34C57.5723 34.116 57.2257 33.7747 56.991 33.316C56.7563 32.8573 56.639 32.2653 56.639 31.54V25.924H58.063V31.444C58.063 32.1267 58.2177 32.6387 58.527 32.98C58.8363 33.3213 59.3163 33.492 59.967 33.492C60.607 33.492 61.1083 33.3747 61.471 33.14C61.8443 32.8947 62.1057 32.5427 62.255 32.084C62.415 31.6147 62.495 31.0493 62.495 30.388V25.924H63.903ZM69.9376 25.764C70.6736 25.764 71.303 25.924 71.8256 26.244C72.359 26.564 72.7643 27.0173 73.0416 27.604C73.3296 28.18 73.4736 28.8573 73.4736 29.636V30.484H67.6016C67.623 31.4547 67.8683 32.196 68.3376 32.708C68.8176 33.2093 69.4843 33.46 70.3376 33.46C70.8816 33.46 71.3616 33.412 71.7776 33.316C72.2043 33.2093 72.6416 33.06 73.0896 32.868V34.1C72.6523 34.292 72.2203 34.4307 71.7936 34.516C71.367 34.612 70.8603 34.66 70.2736 34.66C69.463 34.66 68.743 34.4947 68.1136 34.164C67.495 33.8333 67.0096 33.3427 66.6576 32.692C66.3163 32.0307 66.1456 31.2253 66.1456 30.276C66.1456 29.3373 66.3003 28.532 66.6096 27.86C66.9296 27.188 67.3723 26.6707 67.9376 26.308C68.5136 25.9453 69.1803 25.764 69.9376 25.764ZM69.9216 26.916C69.2496 26.916 68.7163 27.1347 68.3216 27.572C67.9376 27.9987 67.7083 28.596 67.6336 29.364H72.0016C72.0016 28.8733 71.927 28.4467 71.7776 28.084C71.6283 27.7213 71.399 27.4387 71.0896 27.236C70.791 27.0227 70.4016 26.916 69.9216 26.916Z" fill="#666666"/></g></g></svg>
