<?xml version="1.0" encoding="UTF-8"?>
<svg xmlns="http://www.w3.org/2000/svg" width="311" height="57" viewBox="0 0 311 57" fill="none"><g data-node-id="339:1034"><rect x="0.5" y="0.5" width="310" height="56" rx="8" fill="white"/><rect x="0.5" y="0.5" width="310" height="56" rx="8" stroke="#CCCCCC"/><path data-node-id="339:1036" d="M21.204 23.076C22.1533 23.076 22.932 23.1987 23.54 23.444C24.1587 23.6787 24.6173 24.036 24.916 24.516C25.2147 24.996 25.364 25.5987 25.364 26.324C25.364 26.932 25.252 27.4387 25.028 27.844C24.804 28.2493 24.516 28.5747 24.164 28.82C23.8227 29.0547 23.46 29.2413 23.076 29.38L26.212 34.5H24.532L21.764 29.78H19.492V34.5H18.052V23.076H21.204ZM21.124 24.324H19.492V28.564H21.204C21.8227 28.564 22.3293 28.484 22.724 28.324C23.1187 28.1533 23.4067 27.908 23.588 27.588C23.78 27.268 23.876 26.868 23.876 26.388C23.876 25.8867 23.7747 25.4867 23.572 25.188C23.38 24.8893 23.0813 24.6707 22.676 24.532C22.2707 24.3933 21.7533 24.324 21.124 24.324ZM37.9731 28.772C37.9731 29.6573 37.8611 30.4627 37.6371 31.188C37.4131 31.9027 37.0771 32.5213 36.6291 33.044C36.1918 33.5667 35.6425 33.9667 34.9811 34.244C34.3305 34.5213 33.5731 34.66 32.7091 34.66C31.8131 34.66 31.0345 34.5213 30.3731 34.244C29.7118 33.956 29.1625 33.556 28.7251 33.044C28.2878 32.5213 27.9625 31.8973 27.7491 31.172C27.5358 30.4467 27.4291 29.6413 27.4291 28.756C27.4291 27.5827 27.6211 26.5587 28.0051 25.684C28.3891 24.8093 28.9705 24.1267 29.7491 23.636C30.5385 23.1453 31.5305 22.9 32.7251 22.9C33.8665 22.9 34.8265 23.1453 35.6051 23.636C36.3838 24.116 36.9705 24.7987 37.3651 25.684C37.7705 26.5587 37.9731 27.588 37.9731 28.772ZM28.9491 28.772C28.9491 29.732 29.0825 30.5587 29.3491 31.252C29.6158 31.9453 30.0265 32.4787 30.5811 32.852C31.1465 33.2253 31.8558 33.412 32.7091 33.412C33.5731 33.412 34.2771 33.2253 34.8211 32.852C35.3758 32.4787 35.7865 31.9453 36.0531 31.252C36.3198 30.5587 36.4531 29.732 36.4531 28.772C36.4531 27.332 36.1545 26.2067 35.5571 25.396C34.9598 24.5747 34.0158 24.164 32.7251 24.164C31.8611 24.164 31.1465 24.3507 30.5811 24.724C30.0265 25.0867 29.6158 25.6147 29.3491 26.308C29.0825 26.9907 28.9491 27.812 28.9491 28.772ZM40.5051 34.5V23.076H41.9451V33.22H46.9371V34.5H40.5051ZM55.2798 34.5H48.8958V23.076H55.2798V24.34H50.3358V27.908H54.9918V29.156H50.3358V33.236H55.2798V34.5Z" fill="#666666"/></g></svg>
