<?xml version="1.0" encoding="UTF-8"?>
<svg xmlns="http://www.w3.org/2000/svg" width="195" height="68" viewBox="0 0 195 68" fill="none"><g data-node-id="211:4838"><rect width="195" height="68" rx="12" fill="url(#paint0_linear_211_4838)" fill-opacity="0.2"/><g data-node-id="211:4839"><g data-node-id="211:4840"><path data-node-id="I211:4840;165:486" d="M23.7647 32.3824L26.6191 33.8096C27.4857 34.2429 28.5082 34.231 29.3644 33.7777L36.0966 30.2133M23.7647 32.3824L29.7647 29.2059M23.7647 32.3824L19.4309 30.2161M28 34.1261V43.1261M36.0966 30.2133C35.8416 29.7728 35.4747 29.3969 35.0211 29.1301L29.4785 25.8698C28.5624 25.3309 27.4296 25.3169 26.5005 25.8331L20.5431 29.1428C20.0766 29.4019 19.697 29.7749 19.4309 30.2161M36.0966 30.2133C36.3566 30.6625 36.5 31.1791 36.5 31.7159V37.1938C36.5 38.305 35.8858 39.3252 34.9037 39.8452L29.3644 42.7777C28.5082 43.231 27.4857 43.2429 26.6191 42.8096L20.6584 39.8292C19.642 39.3211 19 38.2823 19 37.1459V31.7653C19 31.2093 19.1538 30.6757 19.4309 30.2161" stroke="#419BB8" stroke-width="1.5" stroke-linecap="round" stroke-linejoin="round"/></g></g><g data-node-id="211:4842"><path data-node-id="211:4843" d="M171 29.5L175.5 34L171 38.5" stroke="#419BB8" stroke-width="2" stroke-linecap="round" stroke-linejoin="round"/></g></g><defs><linearGradient id="paint0_linear_211_4838" x1="-1.15437e-06" y1="6" x2="195" y2="61" gradientUnits="userSpaceOnUse"><stop stop-color="#419BB8" stop-opacity="0.5"/><stop offset="0.526042" stop-color="#0D333F" stop-opacity="0.4"/><stop offset="1" stop-opacity="0.3"/></linearGradient></defs></svg>
