<?xml version="1.0" encoding="UTF-8"?>
<svg xmlns="http://www.w3.org/2000/svg" width="195" height="68" viewBox="0 0 195 68" fill="none"><g data-node-id="156:490"><rect width="195" height="68" rx="12" fill="url(#paint0_linear_156_490)" fill-opacity="0.2"/><g data-node-id="156:491"><g data-node-id="163:519"><path data-node-id="163:520" d="M37 35V32C37 29.2386 34.7614 27 32 27C29.2386 27 27 29.2386 27 32V35M37 35H27M37 35C38.6569 35 40 36.3431 40 38V42C40 43.6569 38.6569 45 37 45H27C25.3431 45 24 43.6569 24 42V38C24 36.3431 25.3431 35 27 35" stroke="#419BB8" stroke-width="1.5" stroke-linecap="round" stroke-linejoin="round"/></g><path data-node-id="156:494" d="M59.2271 35.6187V39.3447C59.0747 39.5182 58.842 39.7044 58.5288 39.9033C58.2199 40.1022 57.8242 40.2736 57.3418 40.4175C56.8594 40.5571 56.2839 40.627 55.6152 40.627C55.0101 40.627 54.46 40.5296 53.9648 40.335C53.4697 40.1361 53.0444 39.8462 52.689 39.4653C52.3335 39.0802 52.0584 38.6105 51.8638 38.0562C51.6733 37.5018 51.5781 36.867 51.5781 36.1519V35.606C51.5781 34.8908 51.6733 34.256 51.8638 33.7017C52.0542 33.1473 52.3229 32.6797 52.6699 32.2988C53.0169 31.9137 53.4295 31.6217 53.9077 31.4229C54.3859 31.224 54.9149 31.1245 55.4946 31.1245C56.3198 31.1245 56.9948 31.2578 57.5195 31.5244C58.0443 31.7868 58.4421 32.1507 58.7129 32.6162C58.988 33.0817 59.1572 33.617 59.2207 34.2222H57.2275C57.1852 33.9132 57.1006 33.6466 56.9736 33.4224C56.8509 33.1981 56.6753 33.0267 56.4468 32.9082C56.2183 32.7855 55.922 32.7241 55.5581 32.7241C55.2661 32.7241 55.0016 32.7855 54.7646 32.9082C54.5319 33.0267 54.3351 33.2065 54.1743 33.4478C54.0135 33.689 53.8908 33.9894 53.8062 34.3491C53.7215 34.7046 53.6792 35.1193 53.6792 35.5933V36.1519C53.6792 36.6258 53.7215 37.0426 53.8062 37.4023C53.895 37.762 54.0241 38.0625 54.1934 38.3037C54.3626 38.5407 54.5763 38.7205 54.8345 38.8433C55.0968 38.966 55.4015 39.0273 55.7485 39.0273C56.0194 39.0273 56.2479 39.0062 56.4341 38.9639C56.6203 38.9173 56.7726 38.8602 56.8911 38.7925C57.0096 38.7205 57.0985 38.6549 57.1577 38.5957V37.0596H55.5137V35.6187H59.2271ZM63.7783 40.627C63.2324 40.627 62.7437 40.5402 62.312 40.3667C61.8804 40.1932 61.5143 39.9541 61.2139 39.6494C60.9176 39.3405 60.6912 38.985 60.5347 38.583C60.3781 38.181 60.2998 37.7515 60.2998 37.2944V37.0532C60.2998 36.5412 60.3717 36.0693 60.5156 35.6377C60.6595 35.2061 60.869 34.8315 61.144 34.5142C61.4233 34.1925 61.7661 33.945 62.1724 33.7715C62.5786 33.5938 63.042 33.5049 63.5625 33.5049C64.0492 33.5049 64.4829 33.5853 64.8638 33.7461C65.2446 33.9027 65.5662 34.1291 65.8286 34.4253C66.091 34.7173 66.2899 35.0706 66.4253 35.4854C66.5649 35.8958 66.6348 36.3571 66.6348 36.8691V37.6816H61.0996V36.4058H64.6924V36.2534C64.6924 36.0122 64.6479 35.8006 64.5591 35.6187C64.4744 35.4367 64.3475 35.297 64.1782 35.1997C64.0132 35.0981 63.8037 35.0474 63.5498 35.0474C63.3086 35.0474 63.1076 35.0981 62.9468 35.1997C62.786 35.3013 62.6569 35.4451 62.5596 35.6313C62.4665 35.8133 62.3988 36.027 62.3564 36.2725C62.3141 36.5137 62.293 36.7739 62.293 37.0532V37.2944C62.293 37.561 62.3289 37.8044 62.4009 38.0244C62.4728 38.2445 62.5786 38.4328 62.7183 38.5894C62.8579 38.7459 63.0272 38.8687 63.2261 38.9575C63.425 39.0464 63.6514 39.0908 63.9053 39.0908C64.2184 39.0908 64.5168 39.0316 64.8003 38.9131C65.0838 38.7904 65.3293 38.5999 65.5366 38.3418L66.4634 39.4019C66.3237 39.605 66.127 39.8018 65.873 39.9922C65.6234 40.1784 65.3229 40.3307 64.9717 40.4492C64.6204 40.5677 64.2227 40.627 63.7783 40.627ZM62.3755 32.7178L63.6323 30.7437H65.7524L63.9941 32.7178H62.3755ZM69.5864 35.2314V40.5H67.606V33.6318H69.4658L69.5864 35.2314ZM71.6367 33.5811L71.605 35.4282C71.5203 35.4155 71.4103 35.4049 71.2749 35.3965C71.1395 35.3838 71.0231 35.3774 70.9258 35.3774C70.6719 35.3774 70.4518 35.4092 70.2656 35.4727C70.0837 35.5319 69.9313 35.6208 69.8086 35.7393C69.6901 35.8577 69.6012 36.0059 69.542 36.1836C69.4827 36.3571 69.4531 36.5581 69.4531 36.7866L69.0786 36.6025C69.0786 36.1497 69.123 35.735 69.2119 35.3584C69.3008 34.9818 69.4299 34.6559 69.5991 34.3809C69.7684 34.1016 69.9757 33.8857 70.2212 33.7334C70.4666 33.5811 70.7459 33.5049 71.0591 33.5049C71.1606 33.5049 71.2643 33.5112 71.3701 33.5239C71.4759 33.5366 71.5648 33.5557 71.6367 33.5811ZM75.5596 40.627C75.0137 40.627 74.5249 40.5402 74.0933 40.3667C73.6616 40.1932 73.2956 39.9541 72.9951 39.6494C72.6989 39.3405 72.4725 38.985 72.3159 38.583C72.1593 38.181 72.0811 37.7515 72.0811 37.2944V37.0532C72.0811 36.5412 72.153 36.0693 72.2969 35.6377C72.4408 35.2061 72.6502 34.8315 72.9253 34.5142C73.2046 34.1925 73.5474 33.945 73.9536 33.7715C74.3599 33.5938 74.8232 33.5049 75.3438 33.5049C75.8304 33.5049 76.2642 33.5853 76.645 33.7461C77.0259 33.9027 77.3475 34.1291 77.6099 34.4253C77.8722 34.7173 78.0711 35.0706 78.2065 35.4854C78.3462 35.8958 78.416 36.3571 78.416 36.8691V37.6816H72.8809V36.4058H76.4736V36.2534C76.4736 36.0122 76.4292 35.8006 76.3403 35.6187C76.2557 35.4367 76.1287 35.297 75.9595 35.1997C75.7944 35.0981 75.585 35.0474 75.3311 35.0474C75.0898 35.0474 74.8888 35.0981 74.728 35.1997C74.5672 35.3013 74.4382 35.4451 74.3408 35.6313C74.2477 35.8133 74.18 36.027 74.1377 36.2725C74.0954 36.5137 74.0742 36.7739 74.0742 37.0532V37.2944C74.0742 37.561 74.1102 37.8044 74.1821 38.0244C74.2541 38.2445 74.3599 38.4328 74.4995 38.5894C74.6392 38.7459 74.8084 38.8687 75.0073 38.9575C75.2062 39.0464 75.4326 39.0908 75.6865 39.0908C75.9997 39.0908 76.298 39.0316 76.5815 38.9131C76.8651 38.7904 77.1105 38.5999 77.3179 38.3418L78.2446 39.4019C78.105 39.605 77.9082 39.8018 77.6543 39.9922C77.4046 40.1784 77.1042 40.3307 76.7529 40.4492C76.4017 40.5677 76.0039 40.627 75.5596 40.627ZM81.3677 35.2314V40.5H79.3872V33.6318H81.2471L81.3677 35.2314ZM83.418 33.5811L83.3862 35.4282C83.3016 35.4155 83.1916 35.4049 83.0562 35.3965C82.9207 35.3838 82.8044 35.3774 82.707 35.3774C82.4531 35.3774 82.2331 35.4092 82.0469 35.4727C81.8649 35.5319 81.7126 35.6208 81.5898 35.7393C81.4714 35.8577 81.3825 36.0059 81.3232 36.1836C81.264 36.3571 81.2344 36.5581 81.2344 36.7866L80.8599 36.6025C80.8599 36.1497 80.9043 35.735 80.9932 35.3584C81.082 34.9818 81.2111 34.6559 81.3804 34.3809C81.5496 34.1016 81.757 33.8857 82.0024 33.7334C82.2479 33.5811 82.5272 33.5049 82.8403 33.5049C82.9419 33.5049 83.0456 33.5112 83.1514 33.5239C83.2572 33.5366 83.346 33.5557 83.418 33.5811ZM89.4546 34.9521V43.1406H87.4741V33.6318H89.3213L89.4546 34.9521ZM93.7393 36.9897V37.123C93.7393 37.6224 93.6821 38.0858 93.5679 38.5132C93.4536 38.9364 93.2822 39.3066 93.0537 39.624C92.8294 39.9414 92.5522 40.189 92.2222 40.3667C91.8921 40.5402 91.5091 40.627 91.0732 40.627C90.6585 40.627 90.2988 40.5402 89.9941 40.3667C89.6937 40.189 89.4398 39.9435 89.2324 39.6304C89.0293 39.313 88.8643 38.9512 88.7373 38.5449C88.6146 38.1344 88.5194 37.6965 88.4517 37.231V36.9707C88.5194 36.4756 88.6167 36.0164 88.7437 35.5933C88.8706 35.1701 89.0356 34.804 89.2388 34.4951C89.4419 34.182 89.6937 33.9386 89.9941 33.7651C90.2946 33.5916 90.6522 33.5049 91.0669 33.5049C91.4985 33.5049 91.8815 33.5874 92.2158 33.7524C92.5501 33.9175 92.8294 34.1545 93.0537 34.4634C93.2822 34.7681 93.4536 35.1341 93.5679 35.5615C93.6821 35.9889 93.7393 36.465 93.7393 36.9897ZM91.7524 37.123V36.9897C91.7524 36.7104 91.7313 36.4544 91.689 36.2217C91.6466 35.9847 91.5789 35.7795 91.4858 35.606C91.3927 35.4282 91.27 35.2907 91.1177 35.1934C90.9653 35.096 90.7791 35.0474 90.5591 35.0474C90.3221 35.0474 90.1211 35.0854 89.9561 35.1616C89.791 35.2378 89.6577 35.3499 89.5562 35.498C89.4546 35.6419 89.3805 35.8197 89.334 36.0312C89.2917 36.2428 89.2684 36.484 89.2642 36.7549V37.4531C89.2684 37.7705 89.3128 38.054 89.3975 38.3037C89.4863 38.5492 89.6239 38.7417 89.8101 38.8813C90.0005 39.0168 90.2544 39.0845 90.5718 39.0845C90.7961 39.0845 90.9823 39.0358 91.1304 38.9385C91.2827 38.8369 91.4033 38.6951 91.4922 38.5132C91.5853 38.3312 91.6509 38.1217 91.689 37.8848C91.7313 37.6478 91.7524 37.3939 91.7524 37.123ZM98.0303 40.627C97.4844 40.627 96.9956 40.5402 96.564 40.3667C96.1323 40.1932 95.7663 39.9541 95.4658 39.6494C95.1696 39.3405 94.9432 38.985 94.7866 38.583C94.63 38.181 94.5518 37.7515 94.5518 37.2944V37.0532C94.5518 36.5412 94.6237 36.0693 94.7676 35.6377C94.9115 35.2061 95.1209 34.8315 95.396 34.5142C95.6753 34.1925 96.0181 33.945 96.4243 33.7715C96.8306 33.5938 97.2939 33.5049 97.8145 33.5049C98.3011 33.5049 98.7349 33.5853 99.1157 33.7461C99.4966 33.9027 99.8182 34.1291 100.081 34.4253C100.343 34.7173 100.542 35.0706 100.677 35.4854C100.817 35.8958 100.887 36.3571 100.887 36.8691V37.6816H95.3516V36.4058H98.9443V36.2534C98.9443 36.0122 98.8999 35.8006 98.811 35.6187C98.7264 35.4367 98.5994 35.297 98.4302 35.1997C98.2651 35.0981 98.0557 35.0474 97.8018 35.0474C97.5605 35.0474 97.3595 35.0981 97.1987 35.1997C97.0379 35.3013 96.9089 35.4451 96.8115 35.6313C96.7184 35.8133 96.6507 36.027 96.6084 36.2725C96.5661 36.5137 96.5449 36.7739 96.5449 37.0532V37.2944C96.5449 37.561 96.5809 37.8044 96.6528 38.0244C96.7248 38.2445 96.8306 38.4328 96.9702 38.5894C97.1099 38.7459 97.2791 38.8687 97.478 38.9575C97.6769 39.0464 97.9033 39.0908 98.1572 39.0908C98.4704 39.0908 98.7687 39.0316 99.0522 38.9131C99.3358 38.7904 99.5812 38.5999 99.7886 38.3418L100.715 39.4019C100.576 39.605 100.379 39.8018 100.125 39.9922C99.8753 40.1784 99.5749 40.3307 99.2236 40.4492C98.8724 40.5677 98.4746 40.627 98.0303 40.627ZM103.838 35.2314V40.5H101.858V33.6318H103.718L103.838 35.2314ZM105.889 33.5811L105.857 35.4282C105.772 35.4155 105.662 35.4049 105.527 35.3965C105.391 35.3838 105.275 35.3774 105.178 35.3774C104.924 35.3774 104.704 35.4092 104.518 35.4727C104.336 35.5319 104.183 35.6208 104.061 35.7393C103.942 35.8577 103.853 36.0059 103.794 36.1836C103.735 36.3571 103.705 36.5581 103.705 36.7866L103.331 36.6025C103.331 36.1497 103.375 35.735 103.464 35.3584C103.553 34.9818 103.682 34.6559 103.851 34.3809C104.02 34.1016 104.228 33.8857 104.473 33.7334C104.719 33.5811 104.998 33.5049 105.311 33.5049C105.413 33.5049 105.516 33.5112 105.622 33.5239C105.728 33.5366 105.817 33.5557 105.889 33.5811ZM108.688 35.0728V40.5H106.708V33.6318H108.567L108.688 35.0728ZM108.434 36.8247L107.933 36.8374C107.933 36.355 107.99 35.9128 108.104 35.5107C108.222 35.1045 108.394 34.7511 108.618 34.4507C108.842 34.1502 109.12 33.9175 109.45 33.7524C109.784 33.5874 110.169 33.5049 110.605 33.5049C110.91 33.5049 111.187 33.5514 111.437 33.6445C111.686 33.7334 111.9 33.8752 112.078 34.0698C112.26 34.2603 112.399 34.5099 112.497 34.8188C112.594 35.1235 112.643 35.4896 112.643 35.917V40.5H110.662V36.1582C110.662 35.8535 110.624 35.6229 110.548 35.4663C110.476 35.3055 110.37 35.1955 110.23 35.1362C110.091 35.077 109.924 35.0474 109.729 35.0474C109.517 35.0474 109.329 35.0939 109.164 35.187C109.003 35.2759 108.868 35.4007 108.758 35.5615C108.648 35.7223 108.565 35.9106 108.51 36.1265C108.459 36.3423 108.434 36.575 108.434 36.8247ZM112.439 36.7231L111.811 36.7739C111.811 36.3084 111.866 35.8768 111.976 35.479C112.086 35.0812 112.251 34.7363 112.471 34.4443C112.691 34.1481 112.964 33.9175 113.29 33.7524C113.62 33.5874 114.003 33.5049 114.439 33.5049C114.761 33.5049 115.053 33.5514 115.315 33.6445C115.582 33.7376 115.81 33.8879 116 34.0952C116.195 34.3026 116.345 34.5755 116.451 34.9141C116.557 35.2484 116.61 35.6589 116.61 36.1455V40.5H114.617V36.1455C114.617 35.8451 114.579 35.6165 114.502 35.46C114.431 35.3034 114.325 35.1955 114.185 35.1362C114.05 35.077 113.887 35.0474 113.696 35.0474C113.485 35.0474 113.301 35.0918 113.144 35.1807C112.987 35.2653 112.856 35.3838 112.75 35.5361C112.645 35.6842 112.566 35.8599 112.516 36.063C112.465 36.2661 112.439 36.4862 112.439 36.7231ZM120.025 33.6318V40.5H118.038V33.6318H120.025ZM117.917 31.8545C117.917 31.5667 118.019 31.3319 118.222 31.1499C118.425 30.9637 118.692 30.8706 119.022 30.8706C119.352 30.8706 119.619 30.9637 119.822 31.1499C120.029 31.3319 120.133 31.5667 120.133 31.8545C120.133 32.138 120.029 32.3729 119.822 32.5591C119.619 32.741 119.352 32.832 119.022 32.832C118.692 32.832 118.425 32.741 118.222 32.5591C118.019 32.3729 117.917 32.138 117.917 31.8545ZM125.109 38.5894C125.109 38.4624 125.069 38.3503 124.989 38.2529C124.913 38.1556 124.773 38.0667 124.57 37.9863C124.371 37.9059 124.09 37.8255 123.726 37.7451C123.383 37.6732 123.063 37.5801 122.767 37.4658C122.471 37.3473 122.213 37.2056 121.993 37.0405C121.773 36.8713 121.601 36.6724 121.479 36.4438C121.356 36.2111 121.294 35.9466 121.294 35.6504C121.294 35.3626 121.356 35.0897 121.479 34.8315C121.605 34.5734 121.787 34.3449 122.024 34.146C122.266 33.9471 122.558 33.7905 122.9 33.6763C123.247 33.562 123.641 33.5049 124.081 33.5049C124.686 33.5049 125.209 33.6001 125.649 33.7905C126.089 33.9767 126.428 34.2391 126.665 34.5776C126.902 34.9119 127.02 35.2949 127.02 35.7266H125.04C125.04 35.5488 125.006 35.3944 124.938 35.2632C124.87 35.132 124.767 35.0304 124.627 34.9585C124.487 34.8823 124.303 34.8442 124.075 34.8442C123.897 34.8442 123.74 34.876 123.605 34.9395C123.474 34.9987 123.37 35.0812 123.294 35.187C123.222 35.2928 123.186 35.4155 123.186 35.5552C123.186 35.6525 123.207 35.7414 123.25 35.8218C123.296 35.8979 123.366 35.9699 123.459 36.0376C123.556 36.1011 123.681 36.1582 123.833 36.209C123.99 36.2598 124.181 36.3084 124.405 36.355C124.883 36.4438 125.319 36.5687 125.712 36.7295C126.11 36.8903 126.428 37.1125 126.665 37.396C126.906 37.6795 127.026 38.054 127.026 38.5195C127.026 38.8242 126.957 39.1035 126.817 39.3574C126.681 39.6113 126.485 39.8335 126.227 40.0239C125.968 40.2144 125.66 40.3625 125.3 40.4683C124.94 40.5741 124.534 40.627 124.081 40.627C123.434 40.627 122.886 40.5106 122.437 40.2778C121.988 40.0451 121.65 39.7531 121.421 39.4019C121.197 39.0464 121.085 38.6825 121.085 38.3101H122.945C122.953 38.5386 123.01 38.7248 123.116 38.8687C123.226 39.0125 123.368 39.1183 123.542 39.186C123.715 39.2495 123.91 39.2812 124.125 39.2812C124.341 39.2812 124.521 39.2516 124.665 39.1924C124.809 39.1331 124.919 39.0527 124.995 38.9512C125.071 38.8454 125.109 38.7248 125.109 38.5894ZM131.787 38.5894C131.787 38.4624 131.747 38.3503 131.667 38.2529C131.59 38.1556 131.451 38.0667 131.248 37.9863C131.049 37.9059 130.767 37.8255 130.403 37.7451C130.061 37.6732 129.741 37.5801 129.445 37.4658C129.149 37.3473 128.89 37.2056 128.67 37.0405C128.45 36.8713 128.279 36.6724 128.156 36.4438C128.034 36.2111 127.972 35.9466 127.972 35.6504C127.972 35.3626 128.034 35.0897 128.156 34.8315C128.283 34.5734 128.465 34.3449 128.702 34.146C128.943 33.9471 129.235 33.7905 129.578 33.6763C129.925 33.562 130.319 33.5049 130.759 33.5049C131.364 33.5049 131.887 33.6001 132.327 33.7905C132.767 33.9767 133.105 34.2391 133.342 34.5776C133.579 34.9119 133.698 35.2949 133.698 35.7266H131.717C131.717 35.5488 131.683 35.3944 131.616 35.2632C131.548 35.132 131.444 35.0304 131.305 34.9585C131.165 34.8823 130.981 34.8442 130.752 34.8442C130.575 34.8442 130.418 34.876 130.283 34.9395C130.152 34.9987 130.048 35.0812 129.972 35.187C129.9 35.2928 129.864 35.4155 129.864 35.5552C129.864 35.6525 129.885 35.7414 129.927 35.8218C129.974 35.8979 130.044 35.9699 130.137 36.0376C130.234 36.1011 130.359 36.1582 130.511 36.209C130.668 36.2598 130.858 36.3084 131.083 36.355C131.561 36.4438 131.997 36.5687 132.39 36.7295C132.788 36.8903 133.105 37.1125 133.342 37.396C133.583 37.6795 133.704 38.054 133.704 38.5195C133.704 38.8242 133.634 39.1035 133.495 39.3574C133.359 39.6113 133.162 39.8335 132.904 40.0239C132.646 40.2144 132.337 40.3625 131.978 40.4683C131.618 40.5741 131.212 40.627 130.759 40.627C130.111 40.627 129.563 40.5106 129.115 40.2778C128.666 40.0451 128.328 39.7531 128.099 39.4019C127.875 39.0464 127.763 38.6825 127.763 38.3101H129.623C129.631 38.5386 129.688 38.7248 129.794 38.8687C129.904 39.0125 130.046 39.1183 130.219 39.186C130.393 39.2495 130.587 39.2812 130.803 39.2812C131.019 39.2812 131.199 39.2516 131.343 39.1924C131.487 39.1331 131.597 39.0527 131.673 38.9512C131.749 38.8454 131.787 38.7248 131.787 38.5894ZM136.897 33.6318V40.5H134.91V33.6318H136.897ZM134.79 31.8545C134.79 31.5667 134.891 31.3319 135.094 31.1499C135.297 30.9637 135.564 30.8706 135.894 30.8706C136.224 30.8706 136.491 30.9637 136.694 31.1499C136.901 31.3319 137.005 31.5667 137.005 31.8545C137.005 32.138 136.901 32.3729 136.694 32.5591C136.491 32.741 136.224 32.832 135.894 32.832C135.564 32.832 135.297 32.741 135.094 32.5591C134.891 32.3729 134.79 32.138 134.79 31.8545ZM138.04 37.1357V37.0024C138.04 36.4989 138.111 36.0355 138.255 35.6123C138.399 35.1849 138.611 34.8146 138.89 34.5015C139.169 34.1883 139.512 33.945 139.918 33.7715C140.325 33.5938 140.79 33.5049 141.315 33.5049C141.848 33.5049 142.318 33.5938 142.724 33.7715C143.135 33.945 143.479 34.1883 143.759 34.5015C144.038 34.8146 144.25 35.1849 144.394 35.6123C144.537 36.0355 144.609 36.4989 144.609 37.0024V37.1357C144.609 37.6351 144.537 38.0985 144.394 38.5259C144.25 38.9491 144.038 39.3193 143.759 39.6367C143.479 39.9499 143.137 40.1932 142.73 40.3667C142.324 40.5402 141.857 40.627 141.328 40.627C140.803 40.627 140.335 40.5402 139.925 40.3667C139.514 40.1932 139.169 39.9499 138.89 39.6367C138.611 39.3193 138.399 38.9491 138.255 38.5259C138.111 38.0985 138.04 37.6351 138.04 37.1357ZM140.026 37.0024V37.1357C140.026 37.4066 140.048 37.6605 140.09 37.8975C140.136 38.1344 140.21 38.3418 140.312 38.5195C140.414 38.6973 140.547 38.8369 140.712 38.9385C140.881 39.0358 141.086 39.0845 141.328 39.0845C141.569 39.0845 141.772 39.0358 141.937 38.9385C142.102 38.8369 142.235 38.6973 142.337 38.5195C142.438 38.3418 142.51 38.1344 142.553 37.8975C142.599 37.6605 142.623 37.4066 142.623 37.1357V37.0024C142.623 36.7358 142.599 36.4862 142.553 36.2534C142.51 36.0164 142.438 35.807 142.337 35.625C142.235 35.443 142.1 35.3013 141.931 35.1997C141.766 35.0981 141.56 35.0474 141.315 35.0474C141.078 35.0474 140.877 35.0981 140.712 35.1997C140.547 35.3013 140.414 35.443 140.312 35.625C140.21 35.807 140.136 36.0164 140.09 36.2534C140.048 36.4862 140.026 36.7358 140.026 37.0024ZM147.593 35.0981V40.5H145.606V33.6318H147.472L147.593 35.0981ZM147.333 36.8247L146.837 36.8374C146.837 36.3211 146.901 35.8577 147.028 35.4473C147.155 35.0368 147.335 34.6877 147.567 34.3999C147.804 34.1079 148.086 33.8857 148.412 33.7334C148.742 33.5811 149.106 33.5049 149.503 33.5049C149.825 33.5049 150.119 33.5514 150.386 33.6445C150.652 33.7376 150.881 33.8879 151.071 34.0952C151.266 34.2983 151.414 34.5692 151.516 34.9077C151.617 35.242 151.668 35.6546 151.668 36.1455V40.5H149.675V36.1392C149.675 35.8514 149.635 35.6292 149.554 35.4727C149.474 35.3161 149.355 35.2061 149.199 35.1426C149.046 35.0791 148.86 35.0474 148.64 35.0474C148.407 35.0474 148.208 35.0939 148.043 35.187C147.878 35.2759 147.743 35.4007 147.637 35.5615C147.531 35.7223 147.453 35.9106 147.402 36.1265C147.356 36.3423 147.333 36.575 147.333 36.8247ZM156.619 38.5894C156.619 38.4624 156.579 38.3503 156.499 38.2529C156.422 38.1556 156.283 38.0667 156.08 37.9863C155.881 37.9059 155.599 37.8255 155.235 37.7451C154.893 37.6732 154.573 37.5801 154.277 37.4658C153.981 37.3473 153.722 37.2056 153.502 37.0405C153.282 36.8713 153.111 36.6724 152.988 36.4438C152.866 36.2111 152.804 35.9466 152.804 35.6504C152.804 35.3626 152.866 35.0897 152.988 34.8315C153.115 34.5734 153.297 34.3449 153.534 34.146C153.775 33.9471 154.067 33.7905 154.41 33.6763C154.757 33.562 155.151 33.5049 155.591 33.5049C156.196 33.5049 156.719 33.6001 157.159 33.7905C157.599 33.9767 157.937 34.2391 158.174 34.5776C158.411 34.9119 158.53 35.2949 158.53 35.7266H156.549C156.549 35.5488 156.515 35.3944 156.448 35.2632C156.38 35.132 156.276 35.0304 156.137 34.9585C155.997 34.8823 155.813 34.8442 155.584 34.8442C155.407 34.8442 155.25 34.876 155.115 34.9395C154.984 34.9987 154.88 35.0812 154.804 35.187C154.732 35.2928 154.696 35.4155 154.696 35.5552C154.696 35.6525 154.717 35.7414 154.759 35.8218C154.806 35.8979 154.876 35.9699 154.969 36.0376C155.066 36.1011 155.191 36.1582 155.343 36.209C155.5 36.2598 155.69 36.3084 155.915 36.355C156.393 36.4438 156.829 36.5687 157.222 36.7295C157.62 36.8903 157.937 37.1125 158.174 37.396C158.416 37.6795 158.536 38.054 158.536 38.5195C158.536 38.8242 158.466 39.1035 158.327 39.3574C158.191 39.6113 157.994 39.8335 157.736 40.0239C157.478 40.2144 157.169 40.3625 156.81 40.4683C156.45 40.5741 156.044 40.627 155.591 40.627C154.943 40.627 154.395 40.5106 153.947 40.2778C153.498 40.0451 153.16 39.7531 152.931 39.4019C152.707 39.0464 152.595 38.6825 152.595 38.3101H154.455C154.463 38.5386 154.52 38.7248 154.626 38.8687C154.736 39.0125 154.878 39.1183 155.051 39.186C155.225 39.2495 155.419 39.2812 155.635 39.2812C155.851 39.2812 156.031 39.2516 156.175 39.1924C156.319 39.1331 156.429 39.0527 156.505 38.9512C156.581 38.8454 156.619 38.7248 156.619 38.5894Z" fill="#419BB8"/></g><g data-node-id="156:495"><path data-node-id="156:496" d="M171 29.5L175.5 34L171 38.5" stroke="#419BB8" stroke-width="2" stroke-linecap="round" stroke-linejoin="round"/></g></g><defs><linearGradient id="paint0_linear_156_490" x1="-1.15437e-06" y1="6" x2="195" y2="61" gradientUnits="userSpaceOnUse"><stop stop-color="#419BB8" stop-opacity="0.5"/><stop offset="0.526042" stop-color="#0D333F" stop-opacity="0.4"/><stop offset="1" stop-opacity="0.3"/></linearGradient></defs></svg>
