<?xml version="1.0" encoding="UTF-8"?>
<svg xmlns="http://www.w3.org/2000/svg" width="195" height="68" viewBox="0 0 195 68" fill="none"><g data-node-id="159:507"><rect width="195" height="68" rx="12" fill="url(#paint0_linear_159_507)" fill-opacity="0.2"/><g data-node-id="159:508"><g data-node-id="163:516"><path data-node-id="163:517" d="M21 28.25V40.9016C21 42.6103 23.0042 43.5321 24.3016 42.4201L26.6984 40.3656C27.4474 39.7237 28.5526 39.7237 29.3016 40.3656L31.6984 42.4201C32.9958 43.5321 35 42.6103 35 40.9016V28.25C35 26.5931 33.6569 25.25 32 25.25H24C22.3431 25.25 21 26.5931 21 28.25Z" stroke="#419BB8" stroke-width="1.5" stroke-linecap="round" stroke-linejoin="round"/></g><path data-node-id="159:510" d="M60.54 33.6187V37.3447C60.3877 37.5182 60.1549 37.7044 59.8418 37.9033C59.5329 38.1022 59.1372 38.2736 58.6548 38.4175C58.1724 38.5571 57.5968 38.627 56.9282 38.627C56.3231 38.627 55.7729 38.5296 55.2778 38.335C54.7827 38.1361 54.3574 37.8462 54.002 37.4653C53.6465 37.0802 53.3714 36.6105 53.1768 36.0562C52.9863 35.5018 52.8911 34.867 52.8911 34.1519V33.606C52.8911 32.8908 52.9863 32.256 53.1768 31.7017C53.3672 31.1473 53.6359 30.6797 53.9829 30.2988C54.3299 29.9137 54.7425 29.6217 55.2207 29.4229C55.6989 29.224 56.2279 29.1245 56.8076 29.1245C57.6328 29.1245 58.3078 29.2578 58.8325 29.5244C59.3573 29.7868 59.755 30.1507 60.0259 30.6162C60.3009 31.0817 60.4702 31.617 60.5337 32.2222H58.5405C58.4982 31.9132 58.4136 31.6466 58.2866 31.4224C58.1639 31.1981 57.9883 31.0267 57.7598 30.9082C57.5312 30.7855 57.235 30.7241 56.8711 30.7241C56.5791 30.7241 56.3146 30.7855 56.0776 30.9082C55.8449 31.0267 55.6481 31.2065 55.4873 31.4478C55.3265 31.689 55.2038 31.9894 55.1191 32.3491C55.0345 32.7046 54.9922 33.1193 54.9922 33.5933V34.1519C54.9922 34.6258 55.0345 35.0426 55.1191 35.4023C55.208 35.762 55.3371 36.0625 55.5063 36.3037C55.6756 36.5407 55.8893 36.7205 56.1475 36.8433C56.4098 36.966 56.7145 37.0273 57.0615 37.0273C57.3324 37.0273 57.5609 37.0062 57.7471 36.9639C57.9333 36.9173 58.0856 36.8602 58.2041 36.7925C58.3226 36.7205 58.4115 36.6549 58.4707 36.5957V35.0596H56.8267V33.6187H60.54ZM65.0913 38.627C64.5454 38.627 64.0566 38.5402 63.625 38.3667C63.1934 38.1932 62.8273 37.9541 62.5269 37.6494C62.2306 37.3405 62.0042 36.985 61.8477 36.583C61.6911 36.181 61.6128 35.7515 61.6128 35.2944V35.0532C61.6128 34.5412 61.6847 34.0693 61.8286 33.6377C61.9725 33.2061 62.182 32.8315 62.457 32.5142C62.7363 32.1925 63.0791 31.945 63.4854 31.7715C63.8916 31.5938 64.355 31.5049 64.8755 31.5049C65.3621 31.5049 65.7959 31.5853 66.1768 31.7461C66.5576 31.9027 66.8792 32.1291 67.1416 32.4253C67.404 32.7173 67.6029 33.0706 67.7383 33.4854C67.8779 33.8958 67.9478 34.3571 67.9478 34.8691V35.6816H62.4126V34.4058H66.0054V34.2534C66.0054 34.0122 65.9609 33.8006 65.8721 33.6187C65.7874 33.4367 65.6605 33.297 65.4912 33.1997C65.3262 33.0981 65.1167 33.0474 64.8628 33.0474C64.6216 33.0474 64.4206 33.0981 64.2598 33.1997C64.099 33.3013 63.9699 33.4451 63.8726 33.6313C63.7795 33.8133 63.7118 34.027 63.6694 34.2725C63.6271 34.5137 63.606 34.7739 63.606 35.0532V35.2944C63.606 35.561 63.6419 35.8044 63.7139 36.0244C63.7858 36.2445 63.8916 36.4328 64.0312 36.5894C64.1709 36.7459 64.3402 36.8687 64.5391 36.9575C64.738 37.0464 64.9644 37.0908 65.2183 37.0908C65.5314 37.0908 65.8298 37.0316 66.1133 36.9131C66.3968 36.7904 66.6423 36.5999 66.8496 36.3418L67.7764 37.4019C67.6367 37.605 67.4399 37.8018 67.186 37.9922C66.9364 38.1784 66.6359 38.3307 66.2847 38.4492C65.9334 38.5677 65.5356 38.627 65.0913 38.627ZM63.6885 30.7178L64.9453 28.7437H67.0654L65.3071 30.7178H63.6885ZM70.8994 33.2314V38.5H68.9189V31.6318H70.7788L70.8994 33.2314ZM72.9497 31.5811L72.918 33.4282C72.8333 33.4155 72.7233 33.4049 72.5879 33.3965C72.4525 33.3838 72.3361 33.3774 72.2388 33.3774C71.9849 33.3774 71.7648 33.4092 71.5786 33.4727C71.3966 33.5319 71.2443 33.6208 71.1216 33.7393C71.0031 33.8577 70.9142 34.0059 70.855 34.1836C70.7957 34.3571 70.7661 34.5581 70.7661 34.7866L70.3916 34.6025C70.3916 34.1497 70.436 33.735 70.5249 33.3584C70.6138 32.9818 70.7428 32.6559 70.9121 32.3809C71.0814 32.1016 71.2887 31.8857 71.5342 31.7334C71.7796 31.5811 72.0589 31.5049 72.3721 31.5049C72.4736 31.5049 72.5773 31.5112 72.6831 31.5239C72.7889 31.5366 72.8778 31.5557 72.9497 31.5811ZM76.8726 38.627C76.3267 38.627 75.8379 38.5402 75.4062 38.3667C74.9746 38.1932 74.6086 37.9541 74.3081 37.6494C74.0119 37.3405 73.7855 36.985 73.6289 36.583C73.4723 36.181 73.394 35.7515 73.394 35.2944V35.0532C73.394 34.5412 73.466 34.0693 73.6099 33.6377C73.7537 33.2061 73.9632 32.8315 74.2383 32.5142C74.5176 32.1925 74.8604 31.945 75.2666 31.7715C75.6729 31.5938 76.1362 31.5049 76.6567 31.5049C77.1434 31.5049 77.5771 31.5853 77.958 31.7461C78.3389 31.9027 78.6605 32.1291 78.9229 32.4253C79.1852 32.7173 79.3841 33.0706 79.5195 33.4854C79.6592 33.8958 79.729 34.3571 79.729 34.8691V35.6816H74.1938V34.4058H77.7866V34.2534C77.7866 34.0122 77.7422 33.8006 77.6533 33.6187C77.5687 33.4367 77.4417 33.297 77.2725 33.1997C77.1074 33.0981 76.8979 33.0474 76.644 33.0474C76.4028 33.0474 76.2018 33.0981 76.041 33.1997C75.8802 33.3013 75.7511 33.4451 75.6538 33.6313C75.5607 33.8133 75.493 34.027 75.4507 34.2725C75.4084 34.5137 75.3872 34.7739 75.3872 35.0532V35.2944C75.3872 35.561 75.4232 35.8044 75.4951 36.0244C75.5671 36.2445 75.6729 36.4328 75.8125 36.5894C75.9521 36.7459 76.1214 36.8687 76.3203 36.9575C76.5192 37.0464 76.7456 37.0908 76.9995 37.0908C77.3127 37.0908 77.611 37.0316 77.8945 36.9131C78.1781 36.7904 78.4235 36.5999 78.6309 36.3418L79.5576 37.4019C79.418 37.605 79.2212 37.8018 78.9673 37.9922C78.7176 38.1784 78.4172 38.3307 78.0659 38.4492C77.7147 38.5677 77.3169 38.627 76.8726 38.627ZM82.6807 33.2314V38.5H80.7002V31.6318H82.5601L82.6807 33.2314ZM84.731 31.5811L84.6992 33.4282C84.6146 33.4155 84.5046 33.4049 84.3691 33.3965C84.2337 33.3838 84.1174 33.3774 84.02 33.3774C83.7661 33.3774 83.5461 33.4092 83.3599 33.4727C83.1779 33.5319 83.0256 33.6208 82.9028 33.7393C82.7843 33.8577 82.6955 34.0059 82.6362 34.1836C82.577 34.3571 82.5474 34.5581 82.5474 34.7866L82.1729 34.6025C82.1729 34.1497 82.2173 33.735 82.3062 33.3584C82.395 32.9818 82.5241 32.6559 82.6934 32.3809C82.8626 32.1016 83.07 31.8857 83.3154 31.7334C83.5609 31.5811 83.8402 31.5049 84.1533 31.5049C84.2549 31.5049 84.3586 31.5112 84.4644 31.5239C84.5701 31.5366 84.659 31.5557 84.731 31.5811ZM90.7676 32.9521V41.1406H88.7871V31.6318H90.6343L90.7676 32.9521ZM95.0522 34.9897V35.123C95.0522 35.6224 94.9951 36.0858 94.8809 36.5132C94.7666 36.9364 94.5952 37.3066 94.3667 37.624C94.1424 37.9414 93.8652 38.189 93.5352 38.3667C93.2051 38.5402 92.8221 38.627 92.3862 38.627C91.9715 38.627 91.6118 38.5402 91.3071 38.3667C91.0067 38.189 90.7528 37.9435 90.5454 37.6304C90.3423 37.313 90.1772 36.9512 90.0503 36.5449C89.9276 36.1344 89.8324 35.6965 89.7646 35.231V34.9707C89.8324 34.4756 89.9297 34.0164 90.0566 33.5933C90.1836 33.1701 90.3486 32.804 90.5518 32.4951C90.7549 32.182 91.0067 31.9386 91.3071 31.7651C91.6076 31.5916 91.9652 31.5049 92.3799 31.5049C92.8115 31.5049 93.1945 31.5874 93.5288 31.7524C93.8631 31.9175 94.1424 32.1545 94.3667 32.4634C94.5952 32.7681 94.7666 33.1341 94.8809 33.5615C94.9951 33.9889 95.0522 34.465 95.0522 34.9897ZM93.0654 35.123V34.9897C93.0654 34.7104 93.0443 34.4544 93.002 34.2217C92.9596 33.9847 92.8919 33.7795 92.7988 33.606C92.7057 33.4282 92.583 33.2907 92.4307 33.1934C92.2783 33.096 92.0921 33.0474 91.8721 33.0474C91.6351 33.0474 91.4341 33.0854 91.269 33.1616C91.104 33.2378 90.9707 33.3499 90.8691 33.498C90.7676 33.6419 90.6935 33.8197 90.647 34.0312C90.6047 34.2428 90.5814 34.484 90.5771 34.7549V35.4531C90.5814 35.7705 90.6258 36.054 90.7104 36.3037C90.7993 36.5492 90.9368 36.7417 91.123 36.8813C91.3135 37.0168 91.5674 37.0845 91.8848 37.0845C92.109 37.0845 92.2952 37.0358 92.4434 36.9385C92.5957 36.8369 92.7163 36.6951 92.8052 36.5132C92.8983 36.3312 92.9639 36.1217 93.002 35.8848C93.0443 35.6478 93.0654 35.3939 93.0654 35.123ZM98.0928 33.2314V38.5H96.1123V31.6318H97.9722L98.0928 33.2314ZM100.143 31.5811L100.111 33.4282C100.027 33.4155 99.9167 33.4049 99.7812 33.3965C99.6458 33.3838 99.5295 33.3774 99.4321 33.3774C99.1782 33.3774 98.9582 33.4092 98.772 33.4727C98.59 33.5319 98.4377 33.6208 98.3149 33.7393C98.1965 33.8577 98.1076 34.0059 98.0483 34.1836C97.9891 34.3571 97.9595 34.5581 97.9595 34.7866L97.585 34.6025C97.585 34.1497 97.6294 33.735 97.7183 33.3584C97.8071 32.9818 97.9362 32.6559 98.1055 32.3809C98.2747 32.1016 98.4821 31.8857 98.7275 31.7334C98.973 31.5811 99.2523 31.5049 99.5654 31.5049C99.667 31.5049 99.7707 31.5112 99.8765 31.5239C99.9823 31.5366 100.071 31.5557 100.143 31.5811ZM100.454 35.1357V35.0024C100.454 34.4989 100.526 34.0355 100.67 33.6123C100.814 33.1849 101.025 32.8146 101.305 32.5015C101.584 32.1883 101.927 31.945 102.333 31.7715C102.739 31.5938 103.205 31.5049 103.729 31.5049C104.263 31.5049 104.732 31.5938 105.139 31.7715C105.549 31.945 105.894 32.1883 106.173 32.5015C106.453 32.8146 106.664 33.1849 106.808 33.6123C106.952 34.0355 107.024 34.4989 107.024 35.0024V35.1357C107.024 35.6351 106.952 36.0985 106.808 36.5259C106.664 36.9491 106.453 37.3193 106.173 37.6367C105.894 37.9499 105.551 38.1932 105.145 38.3667C104.739 38.5402 104.271 38.627 103.742 38.627C103.217 38.627 102.75 38.5402 102.339 38.3667C101.929 38.1932 101.584 37.9499 101.305 37.6367C101.025 37.3193 100.814 36.9491 100.67 36.5259C100.526 36.0985 100.454 35.6351 100.454 35.1357ZM102.441 35.0024V35.1357C102.441 35.4066 102.462 35.6605 102.504 35.8975C102.551 36.1344 102.625 36.3418 102.727 36.5195C102.828 36.6973 102.961 36.8369 103.126 36.9385C103.296 37.0358 103.501 37.0845 103.742 37.0845C103.983 37.0845 104.187 37.0358 104.352 36.9385C104.517 36.8369 104.65 36.6973 104.751 36.5195C104.853 36.3418 104.925 36.1344 104.967 35.8975C105.014 35.6605 105.037 35.4066 105.037 35.1357V35.0024C105.037 34.7358 105.014 34.4862 104.967 34.2534C104.925 34.0164 104.853 33.807 104.751 33.625C104.65 33.443 104.514 33.3013 104.345 33.1997C104.18 33.0981 103.975 33.0474 103.729 33.0474C103.493 33.0474 103.292 33.0981 103.126 33.1997C102.961 33.3013 102.828 33.443 102.727 33.625C102.625 33.807 102.551 34.0164 102.504 34.2534C102.462 34.4862 102.441 34.7358 102.441 35.0024ZM112.064 36.9639V28.75H114.057V38.5H112.267L112.064 36.9639ZM107.786 35.1484V35.0151C107.786 34.4946 107.843 34.0207 107.957 33.5933C108.076 33.1616 108.247 32.7913 108.471 32.4824C108.7 32.1693 108.981 31.9281 109.315 31.7588C109.65 31.5895 110.033 31.5049 110.464 31.5049C110.862 31.5049 111.209 31.5938 111.505 31.7715C111.802 31.945 112.053 32.1904 112.261 32.5078C112.472 32.821 112.644 33.1912 112.775 33.6187C112.906 34.0418 113.006 34.501 113.073 34.9961V35.2246C113.01 35.6986 112.91 36.1408 112.775 36.5513C112.644 36.9618 112.472 37.3236 112.261 37.6367C112.053 37.9456 111.799 38.189 111.499 38.3667C111.203 38.5402 110.854 38.627 110.452 38.627C110.02 38.627 109.637 38.5402 109.303 38.3667C108.973 38.1932 108.695 37.9499 108.471 37.6367C108.247 37.3236 108.076 36.9554 107.957 36.5322C107.843 36.109 107.786 35.6478 107.786 35.1484ZM109.766 35.0151V35.1484C109.766 35.4193 109.785 35.6711 109.823 35.9038C109.866 36.1366 109.933 36.3418 110.026 36.5195C110.119 36.6973 110.242 36.8369 110.395 36.9385C110.547 37.0358 110.733 37.0845 110.953 37.0845C111.249 37.0845 111.493 37.0168 111.683 36.8813C111.874 36.7417 112.017 36.5492 112.115 36.3037C112.212 36.0583 112.263 35.7726 112.267 35.4468V34.7803C112.267 34.5094 112.24 34.2661 112.185 34.0503C112.13 33.8345 112.047 33.6525 111.937 33.5044C111.831 33.3563 111.698 33.2441 111.537 33.168C111.376 33.0876 111.186 33.0474 110.966 33.0474C110.75 33.0474 110.566 33.0981 110.414 33.1997C110.261 33.297 110.136 33.4346 110.039 33.6123C109.946 33.79 109.876 33.9995 109.83 34.2407C109.787 34.4777 109.766 34.7358 109.766 35.0151ZM119.408 36.8433V31.6318H121.401V38.5H119.535L119.408 36.8433ZM119.618 35.4404L120.164 35.4277C120.164 35.889 120.109 36.3143 119.999 36.7036C119.893 37.0929 119.732 37.4315 119.516 37.7192C119.305 38.007 119.04 38.2313 118.723 38.3921C118.41 38.5487 118.043 38.627 117.625 38.627C117.286 38.627 116.975 38.5804 116.691 38.4873C116.412 38.39 116.171 38.2397 115.968 38.0366C115.765 37.8293 115.608 37.5648 115.498 37.2432C115.388 36.9173 115.333 36.528 115.333 36.0752V31.6318H117.313V36.0879C117.313 36.2656 117.335 36.418 117.377 36.5449C117.424 36.6676 117.485 36.7692 117.561 36.8496C117.641 36.93 117.739 36.9893 117.853 37.0273C117.972 37.0654 118.101 37.0845 118.24 37.0845C118.591 37.0845 118.867 37.0125 119.065 36.8687C119.269 36.7205 119.41 36.5238 119.491 36.2783C119.575 36.0286 119.618 35.7493 119.618 35.4404ZM124.778 31.6318V38.5H122.792V31.6318H124.778ZM122.671 29.8545C122.671 29.5667 122.772 29.3319 122.976 29.1499C123.179 28.9637 123.445 28.8706 123.775 28.8706C124.105 28.8706 124.372 28.9637 124.575 29.1499C124.783 29.3319 124.886 29.5667 124.886 29.8545C124.886 30.138 124.783 30.3729 124.575 30.5591C124.372 30.741 124.105 30.832 123.775 30.832C123.445 30.832 123.179 30.741 122.976 30.5591C122.772 30.3729 122.671 30.138 122.671 29.8545ZM129.698 31.6318V33.022H125.623V31.6318H129.698ZM126.556 29.9307H128.542V36.3481C128.542 36.5386 128.566 36.6846 128.612 36.7861C128.659 36.8877 128.735 36.9596 128.841 37.002C128.947 37.04 129.082 37.0591 129.247 37.0591C129.366 37.0591 129.467 37.0549 129.552 37.0464C129.636 37.0379 129.715 37.0273 129.787 37.0146V38.4492C129.617 38.5042 129.438 38.5465 129.247 38.5762C129.057 38.61 128.849 38.627 128.625 38.627C128.198 38.627 127.827 38.5571 127.514 38.4175C127.205 38.2778 126.968 38.0578 126.803 37.7573C126.638 37.4526 126.556 37.057 126.556 36.5703V29.9307ZM134.306 36.5894C134.306 36.4624 134.266 36.3503 134.186 36.2529C134.109 36.1556 133.97 36.0667 133.767 35.9863C133.568 35.9059 133.286 35.8255 132.922 35.7451C132.58 35.6732 132.26 35.5801 131.964 35.4658C131.668 35.3473 131.41 35.2056 131.189 35.0405C130.969 34.8713 130.798 34.6724 130.675 34.4438C130.553 34.2111 130.491 33.9466 130.491 33.6504C130.491 33.3626 130.553 33.0897 130.675 32.8315C130.802 32.5734 130.984 32.3449 131.221 32.146C131.462 31.9471 131.754 31.7905 132.097 31.6763C132.444 31.562 132.838 31.5049 133.278 31.5049C133.883 31.5049 134.406 31.6001 134.846 31.7905C135.286 31.9767 135.624 32.2391 135.861 32.5776C136.098 32.9119 136.217 33.2949 136.217 33.7266H134.236C134.236 33.5488 134.202 33.3944 134.135 33.2632C134.067 33.132 133.963 33.0304 133.824 32.9585C133.684 32.8823 133.5 32.8442 133.271 32.8442C133.094 32.8442 132.937 32.876 132.802 32.9395C132.671 32.9987 132.567 33.0812 132.491 33.187C132.419 33.2928 132.383 33.4155 132.383 33.5552C132.383 33.6525 132.404 33.7414 132.446 33.8218C132.493 33.8979 132.563 33.9699 132.656 34.0376C132.753 34.1011 132.878 34.1582 133.03 34.209C133.187 34.2598 133.377 34.3084 133.602 34.355C134.08 34.4438 134.516 34.5687 134.909 34.7295C135.307 34.8903 135.624 35.1125 135.861 35.396C136.103 35.6795 136.223 36.054 136.223 36.5195C136.223 36.8242 136.153 37.1035 136.014 37.3574C135.878 37.6113 135.681 37.8335 135.423 38.0239C135.165 38.2144 134.856 38.3625 134.497 38.4683C134.137 38.5741 133.731 38.627 133.278 38.627C132.63 38.627 132.082 38.5106 131.634 38.2778C131.185 38.0451 130.847 37.7531 130.618 37.4019C130.394 37.0464 130.282 36.6825 130.282 36.3101H132.142C132.15 36.5386 132.207 36.7248 132.313 36.8687C132.423 37.0125 132.565 37.1183 132.738 37.186C132.912 37.2495 133.106 37.2812 133.322 37.2812C133.538 37.2812 133.718 37.2516 133.862 37.1924C134.006 37.1331 134.116 37.0527 134.192 36.9512C134.268 36.8454 134.306 36.7248 134.306 36.5894Z" fill="#419BB8"/></g><g data-node-id="159:511"><path data-node-id="159:512" d="M171 29.5L175.5 34L171 38.5" stroke="#419BB8" stroke-width="2" stroke-linecap="round" stroke-linejoin="round"/></g></g><defs><linearGradient id="paint0_linear_159_507" x1="-1.15437e-06" y1="6" x2="195" y2="61" gradientUnits="userSpaceOnUse"><stop stop-color="#419BB8" stop-opacity="0.5"/><stop offset="0.526042" stop-color="#0D333F" stop-opacity="0.4"/><stop offset="1" stop-opacity="0.3"/></linearGradient></defs></svg>
