<?xml version="1.0" encoding="UTF-8"?>
<svg xmlns="http://www.w3.org/2000/svg" width="285" height="44" viewBox="0 0 285 44" fill="none"><g data-node-id="349:1022"><g data-node-id="349:1023"><mask id="path-2-inside-1_349_1022" fill="white"><path d="M0 8C0 3.58172 3.58172 0 8 0H277C281.418 0 285 3.58172 285 8V36C285 40.4183 281.418 44 277 44H7.99999C3.58172 44 0 40.4183 0 36V8Z"/></mask><path d="M0 8C0 3.58172 3.58172 0 8 0H277C281.418 0 285 3.58172 285 8V36C285 40.4183 281.418 44 277 44H7.99999C3.58172 44 0 40.4183 0 36V8Z" fill="white"/><path d="M8 0V1H277V0V-1H8V0ZM285 8H284V36H285H286V8H285ZM277 44V43H7.99999V44V45H277V44ZM0 36H1V8H0H-1V36H0ZM7.99999 44V43C4.134 43 1 39.866 1 36H0H-1C-1 40.9706 3.02943 45 7.99999 45V44ZM285 36H284C284 39.866 280.866 43 277 43V44V45C281.971 45 286 40.9706 286 36H285ZM277 0V1C280.866 1 284 4.13401 284 8H285H286C286 3.02944 281.971 -1 277 -1V0ZM8 0V-1C3.02944 -1 -1 3.02944 -1 8H0H1C1 4.13401 4.13401 1 8 1V0Z" fill="#419BB8" mask="url(#path-2-inside-1_349_1022)"/><g data-node-id="349:1025"><g data-node-id="349:1026"><path data-node-id="I349:1026;18:113" d="M260.528 20.1953C260.653 20.0704 260.823 20.0002 261 20.0002C261.176 20.0002 261.346 20.0704 261.471 20.1953L265 23.724L268.528 20.1953C268.59 20.1317 268.663 20.0809 268.745 20.0459C268.826 20.011 268.913 19.9926 269.002 19.9918C269.09 19.9911 269.178 20.0079 269.26 20.0415C269.342 20.075 269.417 20.1245 269.479 20.1871C269.542 20.2497 269.591 20.3241 269.625 20.406C269.658 20.488 269.675 20.5758 269.674 20.6643C269.674 20.7528 269.655 20.8403 269.62 20.9216C269.585 21.003 269.535 21.0765 269.471 21.138L265.471 25.138C265.346 25.263 265.176 25.3332 265 25.3332C264.823 25.3332 264.653 25.263 264.528 25.138L260.528 21.138C260.403 21.013 260.333 20.8435 260.333 20.6667C260.333 20.4899 260.403 20.3204 260.528 20.1953Z" fill="#A0A8AC"/></g></g></g></g></svg>
