<?xml version="1.0" encoding="UTF-8"?>
<svg xmlns="http://www.w3.org/2000/svg" width="15" height="15" viewBox="0 0 15 15" fill="none"><path data-node-id="I168:538;5902:7678;5902:7002" d="M6.2498 14.3745C6.2498 14.5403 6.18395 14.6993 6.06674 14.8165C5.94954 14.9337 5.79057 14.9995 5.62482 14.9995H0.62498C0.459225 14.9995 0.300259 14.9337 0.183052 14.8165C0.065846 14.6993 0 14.5403 0 14.3745V0.62498C0 0.459225 0.065846 0.300259 0.183052 0.183052C0.300259 0.065846 0.459225 0 0.62498 0H5.62482C5.79057 0 5.94954 0.065846 6.06674 0.183052C6.18395 0.300259 6.2498 0.459225 6.2498 0.62498C6.2498 0.790735 6.18395 0.9497 6.06674 1.06691C5.94954 1.18411 5.79057 1.24996 5.62482 1.24996H1.24996V13.7496H5.62482C5.79057 13.7496 5.94954 13.8154 6.06674 13.9326C6.18395 14.0498 6.2498 14.2088 6.2498 14.3745ZM14.8167 7.05758L11.6918 3.93268C11.5745 3.81541 11.4155 3.74953 11.2496 3.74953C11.0838 3.74953 10.9247 3.81541 10.8075 3.93268C10.6902 4.04996 10.6243 4.20901 10.6243 4.37486C10.6243 4.5407 10.6902 4.69976 10.8075 4.81703L12.866 6.87478H5.62482C5.45906 6.87478 5.3001 6.94062 5.18289 7.05783C5.06568 7.17504 4.99984 7.334 4.99984 7.49976C4.99984 7.66551 5.06568 7.82448 5.18289 7.94168C5.3001 8.05889 5.45906 8.12474 5.62482 8.12474H12.866L10.8075 10.1825C10.6902 10.2998 10.6243 10.4588 10.6243 10.6247C10.6243 10.7905 10.6902 10.9496 10.8075 11.0668C10.9247 11.1841 11.0838 11.25 11.2496 11.25C11.4155 11.25 11.5745 11.1841 11.6918 11.0668L14.8167 7.94193C14.8748 7.88389 14.9209 7.81496 14.9524 7.73909C14.9838 7.66321 15 7.58189 15 7.49976C15 7.41762 14.9838 7.3363 14.9524 7.26043C14.9209 7.18455 14.8748 7.11563 14.8167 7.05758Z" fill="black"/></svg>
