<?xml version="1.0" encoding="UTF-8"?>
<svg xmlns="http://www.w3.org/2000/svg" width="195" height="48" viewBox="0 0 195 48" fill="none"><g data-node-id="168:527"><rect width="195" height="47" rx="12" fill="#FF6161" fill-opacity="0.44"/><rect width="195" height="47" rx="12" fill="url(#paint0_linear_168_527)" fill-opacity="0.2"/><g data-node-id="168:538"><g data-node-id="I168:538;5902:7678"><path data-node-id="I168:538;5902:7678;5902:7002" d="M33.375 30.875C33.375 31.0408 33.3092 31.1997 33.1919 31.3169C33.0747 31.4342 32.9158 31.5 32.75 31.5H27.75C27.5842 31.5 27.4253 31.4342 27.3081 31.3169C27.1908 31.1997 27.125 31.0408 27.125 30.875V17.125C27.125 16.9592 27.1908 16.8003 27.3081 16.6831C27.4253 16.5658 27.5842 16.5 27.75 16.5H32.75C32.9158 16.5 33.0747 16.5658 33.1919 16.6831C33.3092 16.8003 33.375 16.9592 33.375 17.125C33.375 17.2908 33.3092 17.4497 33.1919 17.5669C33.0747 17.6842 32.9158 17.75 32.75 17.75H28.375V30.25H32.75C32.9158 30.25 33.0747 30.3158 33.1919 30.4331C33.3092 30.5503 33.375 30.7092 33.375 30.875ZM41.9422 23.5578L38.8172 20.4328C38.6999 20.3155 38.5409 20.2497 38.375 20.2497C38.2091 20.2497 38.0501 20.3155 37.9328 20.4328C37.8155 20.5501 37.7497 20.7091 37.7497 20.875C37.7497 21.0409 37.8155 21.1999 37.9328 21.3172L39.9914 23.375H32.75C32.5842 23.375 32.4253 23.4408 32.3081 23.5581C32.1908 23.6753 32.125 23.8342 32.125 24C32.125 24.1658 32.1908 24.3247 32.3081 24.4419C32.4253 24.5592 32.5842 24.625 32.75 24.625H39.9914L37.9328 26.6828C37.8155 26.8001 37.7497 26.9591 37.7497 27.125C37.7497 27.2909 37.8155 27.4499 37.9328 27.5672C38.0501 27.6845 38.2091 27.7503 38.375 27.7503C38.5409 27.7503 38.6999 27.6845 38.8172 27.5672L41.9422 24.4422C42.0003 24.3841 42.0464 24.3152 42.0779 24.2393C42.1093 24.1635 42.1255 24.0821 42.1255 24C42.1255 23.9179 42.1093 23.8365 42.0779 23.7607C42.0464 23.6848 42.0003 23.6159 41.9422 23.5578Z" fill="black"/></g></g></g><defs><linearGradient id="paint0_linear_168_527" x1="-1.15437e-06" y1="4.14706" x2="180.462" y2="77.7888" gradientUnits="userSpaceOnUse"><stop stop-color="#B88641" stop-opacity="0.5"/><stop offset="0.526042" stop-color="#B88641" stop-opacity="0.4"/><stop offset="1" stop-color="#B88641" stop-opacity="0.3"/></linearGradient></defs></svg>
