<?xml version="1.0" encoding="UTF-8"?>
<svg xmlns="http://www.w3.org/2000/svg" width="355" height="228" viewBox="0 0 355 228" fill="none"><g data-node-id="156:529" filter="url(#filter0_ddddd_156_529)"><rect x="80" y="65" width="195" height="68" rx="12" fill="#419BB8"/><g data-node-id="156:530"><g data-node-id="156:531"><path data-node-id="156:532" d="M117 95.6035V108.41H109.421V103.674H106.579V108.41H99V95.6035L108 89.25L117 95.6035ZM100.895 96.5859V106.516H104.685V101.779H111.315V106.516H115.105V96.5859L108 91.5713L100.895 96.5859ZM108 94.6738C109.566 94.6738 110.842 95.9466 110.842 97.5156C110.842 99.0817 109.566 100.357 108 100.357C106.434 100.357 105.158 99.0817 105.158 97.5156C105.158 95.9496 106.434 94.6738 108 94.6738ZM108 96.0947C107.216 96.0947 106.579 96.7312 106.579 97.5156C106.579 98.3002 107.215 98.9365 108 98.9365C108.785 98.9365 109.421 98.3002 109.421 97.5156C109.421 96.7312 108.784 96.0947 108 96.0947Z" fill="white"/></g><path data-node-id="156:535" d="M139.769 98.0527V99.7754H134.614V98.0527H139.769ZM135.318 94.0469V104H133.09V94.0469H135.318ZM141.307 94.0469V104H139.085V94.0469H141.307ZM142.544 100.377V100.233C142.544 99.6911 142.621 99.1921 142.776 98.7363C142.931 98.276 143.159 97.8773 143.46 97.54C143.761 97.2028 144.13 96.9408 144.567 96.7539C145.005 96.5625 145.506 96.4668 146.071 96.4668C146.646 96.4668 147.151 96.5625 147.589 96.7539C148.031 96.9408 148.402 97.2028 148.703 97.54C149.004 97.8773 149.232 98.276 149.387 98.7363C149.542 99.1921 149.619 99.6911 149.619 100.233V100.377C149.619 100.915 149.542 101.414 149.387 101.874C149.232 102.33 149.004 102.729 148.703 103.07C148.402 103.408 148.033 103.67 147.596 103.856C147.158 104.043 146.655 104.137 146.085 104.137C145.52 104.137 145.016 104.043 144.574 103.856C144.132 103.67 143.761 103.408 143.46 103.07C143.159 102.729 142.931 102.33 142.776 101.874C142.621 101.414 142.544 100.915 142.544 100.377ZM144.684 100.233V100.377C144.684 100.669 144.706 100.942 144.752 101.197C144.802 101.452 144.882 101.676 144.991 101.867C145.101 102.059 145.244 102.209 145.422 102.318C145.604 102.423 145.825 102.476 146.085 102.476C146.345 102.476 146.563 102.423 146.741 102.318C146.919 102.209 147.062 102.059 147.172 101.867C147.281 101.676 147.359 101.452 147.404 101.197C147.454 100.942 147.479 100.669 147.479 100.377V100.233C147.479 99.9463 147.454 99.6774 147.404 99.4268C147.359 99.1715 147.281 98.946 147.172 98.75C147.062 98.554 146.917 98.4014 146.734 98.292C146.557 98.1826 146.336 98.1279 146.071 98.1279C145.816 98.1279 145.6 98.1826 145.422 98.292C145.244 98.4014 145.101 98.554 144.991 98.75C144.882 98.946 144.802 99.1715 144.752 99.4268C144.706 99.6774 144.684 99.9463 144.684 100.233ZM152.88 98.1553V104H150.747V96.6035H152.75L152.88 98.1553ZM152.606 100.042L152.066 100.056C152.066 99.5361 152.128 99.0599 152.251 98.627C152.379 98.1895 152.563 97.8089 152.805 97.4854C153.046 97.1618 153.345 96.9111 153.7 96.7334C154.06 96.5557 154.475 96.4668 154.944 96.4668C155.272 96.4668 155.571 96.5169 155.84 96.6172C156.109 96.7129 156.339 96.8656 156.53 97.0752C156.726 97.2803 156.877 97.5492 156.981 97.8818C157.086 98.21 157.139 98.6042 157.139 99.0645V104H155.006V99.3242C155.006 98.9961 154.965 98.7477 154.883 98.5791C154.805 98.4059 154.691 98.2874 154.541 98.2236C154.391 98.1598 154.211 98.1279 154.001 98.1279C153.773 98.1279 153.57 98.1781 153.393 98.2783C153.219 98.374 153.074 98.5085 152.955 98.6816C152.837 98.8548 152.748 99.0576 152.688 99.29C152.634 99.5225 152.606 99.7731 152.606 100.042ZM156.92 99.9326L156.243 99.9873C156.243 99.486 156.302 99.0212 156.421 98.5928C156.539 98.1644 156.717 97.793 156.954 97.4785C157.191 97.1595 157.485 96.9111 157.836 96.7334C158.191 96.5557 158.604 96.4668 159.073 96.4668C159.42 96.4668 159.734 96.5169 160.017 96.6172C160.304 96.7174 160.55 96.8792 160.755 97.1025C160.965 97.3258 161.126 97.6198 161.24 97.9844C161.354 98.3444 161.411 98.7865 161.411 99.3105V104H159.265V99.3105C159.265 98.987 159.224 98.7409 159.142 98.5723C159.064 98.4036 158.95 98.2874 158.8 98.2236C158.654 98.1598 158.479 98.1279 158.273 98.1279C158.046 98.1279 157.847 98.1758 157.679 98.2715C157.51 98.3626 157.369 98.4902 157.255 98.6543C157.141 98.8138 157.057 99.0029 157.002 99.2217C156.947 99.4404 156.92 99.6774 156.92 99.9326ZM166.326 104.137C165.738 104.137 165.212 104.043 164.747 103.856C164.282 103.67 163.888 103.412 163.564 103.084C163.245 102.751 163.002 102.368 162.833 101.936C162.664 101.503 162.58 101.04 162.58 100.548V100.288C162.58 99.7367 162.658 99.2285 162.812 98.7637C162.967 98.2988 163.193 97.8955 163.489 97.5537C163.79 97.2074 164.159 96.9408 164.597 96.7539C165.034 96.5625 165.533 96.4668 166.094 96.4668C166.618 96.4668 167.085 96.5534 167.495 96.7266C167.905 96.8952 168.252 97.139 168.534 97.458C168.817 97.7725 169.031 98.153 169.177 98.5996C169.327 99.0417 169.402 99.5384 169.402 100.09V100.965H163.441V99.5908H167.311V99.4268C167.311 99.167 167.263 98.9391 167.167 98.7432C167.076 98.5472 166.939 98.3968 166.757 98.292C166.579 98.1826 166.354 98.1279 166.08 98.1279C165.82 98.1279 165.604 98.1826 165.431 98.292C165.257 98.4014 165.118 98.5563 165.014 98.7568C164.913 98.9528 164.84 99.1829 164.795 99.4473C164.749 99.707 164.727 99.9873 164.727 100.288V100.548C164.727 100.835 164.765 101.097 164.843 101.334C164.92 101.571 165.034 101.774 165.185 101.942C165.335 102.111 165.517 102.243 165.731 102.339C165.946 102.435 166.189 102.482 166.463 102.482C166.8 102.482 167.121 102.419 167.427 102.291C167.732 102.159 167.996 101.954 168.22 101.676L169.218 102.817C169.067 103.036 168.855 103.248 168.582 103.453C168.313 103.654 167.99 103.818 167.611 103.945C167.233 104.073 166.805 104.137 166.326 104.137Z" fill="white"/></g><g data-node-id="156:536"><path data-node-id="156:537" d="M244 94.5L248.5 99L244 103.5" stroke="white" stroke-width="2" stroke-linecap="round" stroke-linejoin="round"/></g></g><defs><filter id="filter0_ddddd_156_529" x="0" y="0" width="355" height="228" filterUnits="userSpaceOnUse" color-interpolation-filters="sRGB"><feFlood flood-opacity="0" result="BackgroundImageFix"/><feColorMatrix in="SourceAlpha" type="matrix" values="0 0 0 0 0 0 0 0 0 0 0 0 0 0 0 0 0 0 127 0" result="hardAlpha"/><feOffset dy="0.515234"/><feGaussianBlur stdDeviation="6.06125"/><feColorMatrix type="matrix" values="0 0 0 0 0 0 0 0 0 0.486275 0 0 0 0 0.517647 0 0 0 0.0403024 0"/><feBlend mode="normal" in2="BackgroundImageFix" result="effect1_dropShadow_156_529"/><feColorMatrix in="SourceAlpha" type="matrix" values="0 0 0 0 0 0 0 0 0 0 0 0 0 0 0 0 0 0 127 0" result="hardAlpha"/><feOffset dy="1.30307"/><feGaussianBlur stdDeviation="10.9104"/><feColorMatrix type="matrix" values="0 0 0 0 0 0 0 0 0 0.486275 0 0 0 0 0.517647 0 0 0 0.0576822 0"/><feBlend mode="normal" in2="effect1_dropShadow_156_529" result="effect2_dropShadow_156_529"/><feColorMatrix in="SourceAlpha" type="matrix" values="0 0 0 0 0 0 0 0 0 0 0 0 0 0 0 0 0 0 127 0" result="hardAlpha"/><feOffset dy="2.65813"/><feGaussianBlur stdDeviation="15.0817"/><feColorMatrix type="matrix" values="0 0 0 0 0 0 0 0 0 0.486275 0 0 0 0 0.517647 0 0 0 0.0723178 0"/><feBlend mode="normal" in2="effect2_dropShadow_156_529" result="effect3_dropShadow_156_529"/><feColorMatrix in="SourceAlpha" type="matrix" values="0 0 0 0 0 0 0 0 0 0 0 0 0 0 0 0 0 0 127 0" result="hardAlpha"/><feOffset dy="5.47525"/><feGaussianBlur stdDeviation="20.4566"/><feColorMatrix type="matrix" values="0 0 0 0 0 0 0 0 0 0.486275 0 0 0 0 0.517647 0 0 0 0.0896976 0"/><feBlend mode="normal" in2="effect3_dropShadow_156_529" result="effect4_dropShadow_156_529"/><feColorMatrix in="SourceAlpha" type="matrix" values="0 0 0 0 0 0 0 0 0 0 0 0 0 0 0 0 0 0 127 0" result="hardAlpha"/><feOffset dy="15"/><feGaussianBlur stdDeviation="40"/><feColorMatrix type="matrix" values="0 0 0 0 0 0 0 0 0 0.486275 0 0 0 0 0.517647 0 0 0 0.13 0"/><feBlend mode="normal" in2="effect4_dropShadow_156_529" result="effect5_dropShadow_156_529"/><feBlend mode="normal" in="SourceGraphic" in2="effect5_dropShadow_156_529" result="shape"/></filter></defs></svg>
