<?xml version="1.0" encoding="UTF-8"?>
<svg xmlns="http://www.w3.org/2000/svg" width="66" height="66" viewBox="0 0 66 66" fill="none"><g data-node-id="210:4804"><path d="M0 12C0 5.37258 5.37258 0 12 0H54C60.6274 0 66 5.37258 66 12V54C66 60.6274 60.6274 66 54 66H12C5.37258 66 0 60.6274 0 54V12Z" fill="#FFFBD1"/><g data-node-id="210:4812"><g data-node-id="210:4815"><g data-node-id="210:4817"><path data-node-id="210:4818" d="M37 46.3334C35.4177 46.3334 33.871 45.8642 32.5554 44.9852C31.2398 44.1061 30.2145 42.8567 29.609 41.3949C29.0035 39.9331 28.845 38.3245 29.1537 36.7727C29.4624 35.2208 30.2243 33.7954 31.3431 32.6766C32.462 31.5577 33.8874 30.7958 35.4393 30.4871C36.9911 30.1785 38.5997 30.3369 40.0615 30.9424C41.5233 31.5479 42.7727 32.5733 43.6518 33.8889C44.5308 35.2044 45 36.7512 45 38.3334C45 40.4551 44.1571 42.49 42.6569 43.9903C41.1566 45.4906 39.1217 46.3334 37 46.3334ZM28.3333 28.8094C32.384 28.8094 35.6667 26.7627 35.6667 24.2387C35.6667 21.7147 32.384 19.6667 28.3333 19.6667C24.2827 19.6667 21 21.7134 21 24.2387C21 26.7641 24.2827 28.8094 28.3333 28.8094ZM27.2307 34.0667C27.6858 33.0346 28.3014 32.0811 29.0547 31.2414C28.8147 31.2561 28.58 31.2854 28.3333 31.2854C24.2827 31.2854 21 29.2387 21 26.7147V29.5707C21 31.8601 23.7093 33.7321 27.2307 34.0667ZM26.5187 40.2747C26.398 39.6346 26.3359 38.9848 26.3333 38.3334C26.3333 38.0134 26.3533 37.6974 26.3813 37.3841C23.2827 36.8521 21 35.1014 21 33.0001V35.8574C21 37.9894 23.3493 39.7694 26.5187 40.2747ZM28.3333 46.3334C28.8143 46.333 29.2947 46.3032 29.772 46.2441C29.4419 45.9341 29.1415 45.594 28.8747 45.2281C28.4021 44.6738 27.9871 44.0729 27.636 43.4347C23.9173 43.2134 21 41.2814 21 38.9054V41.7614C21 44.2867 24.2827 46.3334 28.3333 46.3334Z" fill="#B68145"/></g></g></g></g></svg>
