<?xml version="1.0" encoding="UTF-8"?>
<svg xmlns="http://www.w3.org/2000/svg" width="195" height="68" viewBox="0 0 195 68" fill="none"><g data-node-id="159:523"><rect width="195" height="68" rx="12" fill="url(#paint0_linear_159_523)" fill-opacity="0.2"/><g data-node-id="159:524"><g data-node-id="278:1613"><path data-node-id="278:1614" d="M22 39H21C19.8954 39 19 38.1046 19 37V30C19 28.3431 20.3431 27 22 27H29C30.6569 27 32 28.3431 32 30V31M22 39C22 38.1716 22.6716 37.5 23.5 37.5C24.3284 37.5 25 38.1716 25 39M22 39V39.5C22 40.3284 22.6716 41 23.5 41C24.3284 41 25 40.3284 25 39.5V39M30.5 39H25M32 31H33.5935C34.9996 31 36.217 31.9766 36.522 33.3492L36.9286 35.1785C36.976 35.3922 37 35.6104 37 35.8293V37C37 38.1046 36.1046 39 35 39H34M32 31V37M34 39C34 38.1716 33.3284 37.5 32.5 37.5C31.6716 37.5 31 38.1716 31 39V39.5C31 40.3284 31.6716 41 32.5 41C33.3284 41 34 40.3284 34 39.5V39Z" stroke="#419BB8" stroke-width="1.5" stroke-linecap="round" stroke-linejoin="round"/></g></g><g data-node-id="159:527"><path data-node-id="159:528" d="M171 29.5L175.5 34L171 38.5" stroke="#419BB8" stroke-width="2" stroke-linecap="round" stroke-linejoin="round"/></g></g><defs><linearGradient id="paint0_linear_159_523" x1="-1.15437e-06" y1="6" x2="195" y2="61" gradientUnits="userSpaceOnUse"><stop stop-color="#419BB8" stop-opacity="0.5"/><stop offset="0.526042" stop-color="#0D333F" stop-opacity="0.4"/><stop offset="1" stop-opacity="0.3"/></linearGradient></defs></svg>
