<?xml version="1.0" encoding="UTF-8"?>
<svg xmlns="http://www.w3.org/2000/svg" width="40" height="40" viewBox="0 0 40 40" fill="none"><g data-node-id="325:1012"><path data-node-id="325:1013" d="M7.99255 21.3286L7.5 9.99989C7.5 9.99989 9.70344 10.498 12.5 9.49992C13.8609 9.01421 15.4051 8.12523 16.7371 7.25856C18.7043 5.97859 21.2957 5.97859 23.2629 7.25856C24.5949 8.12523 26.1391 9.01421 27.5 9.49992C30.2966 10.498 32.5 9.99989 32.5 9.99989L32.0074 21.3286C31.7971 26.1663 28.9806 30.5096 24.6495 32.6751L22.2361 33.8819C20.8284 34.5857 19.1716 34.5857 17.7639 33.8819L15.3505 32.6751C11.0194 30.5096 8.20288 26.1663 7.99255 21.3286Z" stroke="#017AA0" stroke-width="1.5" stroke-linecap="round" stroke-linejoin="round"/></g></svg>
