<?xml version="1.0" encoding="UTF-8"?>
<svg xmlns="http://www.w3.org/2000/svg" width="195" height="68" viewBox="0 0 195 68" fill="none"><g data-node-id="159:515"><rect width="195" height="68" rx="12" fill="url(#paint0_linear_159_515)" fill-opacity="0.2"/><g data-node-id="159:516"><g data-node-id="163:522"><g data-node-id="163:523"><path d="M19.5 27.5C19.5 26.3954 20.3954 25.5 21.5 25.5H24.5C25.6046 25.5 26.5 26.3954 26.5 27.5V30.5C26.5 31.6046 25.6046 32.5 24.5 32.5H21.5C20.3954 32.5 19.5 31.6046 19.5 30.5V27.5Z" stroke="#419BB8" stroke-width="1.5" stroke-linejoin="round"/><path d="M29.5 27.5C29.5 26.3954 30.3954 25.5 31.5 25.5H34.5C35.6046 25.5 36.5 26.3954 36.5 27.5V30.5C36.5 31.6046 35.6046 32.5 34.5 32.5H31.5C30.3954 32.5 29.5 31.6046 29.5 30.5V27.5Z" stroke="#419BB8" stroke-width="1.5" stroke-linejoin="round"/><path d="M29.5 37.5C29.5 36.3954 30.3954 35.5 31.5 35.5H34.5C35.6046 35.5 36.5 36.3954 36.5 37.5V40.5C36.5 41.6046 35.6046 42.5 34.5 42.5H31.5C30.3954 42.5 29.5 41.6046 29.5 40.5V37.5Z" stroke="#419BB8" stroke-width="1.5" stroke-linejoin="round"/><path d="M19.5 37.5C19.5 36.3954 20.3954 35.5 21.5 35.5H24.5C25.6046 35.5 26.5 36.3954 26.5 37.5V40.5C26.5 41.6046 25.6046 42.5 24.5 42.5H21.5C20.3954 42.5 19.5 41.6046 19.5 40.5V37.5Z" stroke="#419BB8" stroke-width="1.5" stroke-linejoin="round"/></g></g><path data-node-id="159:518" d="M60.4404 33.6187V37.3447C60.2881 37.5182 60.0553 37.7044 59.7422 37.9033C59.4333 38.1022 59.0376 38.2736 58.5552 38.4175C58.0728 38.5571 57.4972 38.627 56.8286 38.627C56.2235 38.627 55.6733 38.5296 55.1782 38.335C54.6831 38.1361 54.2578 37.8462 53.9023 37.4653C53.5469 37.0802 53.2718 36.6105 53.0771 36.0562C52.8867 35.5018 52.7915 34.867 52.7915 34.1519V33.606C52.7915 32.8908 52.8867 32.256 53.0771 31.7017C53.2676 31.1473 53.5363 30.6797 53.8833 30.2988C54.2303 29.9137 54.6429 29.6217 55.1211 29.4229C55.5993 29.224 56.1283 29.1245 56.708 29.1245C57.5332 29.1245 58.2082 29.2578 58.7329 29.5244C59.2576 29.7868 59.6554 30.1507 59.9263 30.6162C60.2013 31.0817 60.3706 31.617 60.4341 32.2222H58.4409C58.3986 31.9132 58.314 31.6466 58.187 31.4224C58.0643 31.1981 57.8887 31.0267 57.6602 30.9082C57.4316 30.7855 57.1354 30.7241 56.7715 30.7241C56.4795 30.7241 56.215 30.7855 55.978 30.9082C55.7453 31.0267 55.5485 31.2065 55.3877 31.4478C55.2269 31.689 55.1042 31.9894 55.0195 32.3491C54.9349 32.7046 54.8926 33.1193 54.8926 33.5933V34.1519C54.8926 34.6258 54.9349 35.0426 55.0195 35.4023C55.1084 35.762 55.2375 36.0625 55.4067 36.3037C55.576 36.5407 55.7897 36.7205 56.0479 36.8433C56.3102 36.966 56.6149 37.0273 56.9619 37.0273C57.2327 37.0273 57.4613 37.0062 57.6475 36.9639C57.8337 36.9173 57.986 36.8602 58.1045 36.7925C58.223 36.7205 58.3118 36.6549 58.3711 36.5957V35.0596H56.7271V33.6187H60.4404ZM64.9917 38.627C64.4458 38.627 63.957 38.5402 63.5254 38.3667C63.0938 38.1932 62.7277 37.9541 62.4272 37.6494C62.131 37.3405 61.9046 36.985 61.748 36.583C61.5915 36.181 61.5132 35.7515 61.5132 35.2944V35.0532C61.5132 34.5412 61.5851 34.0693 61.729 33.6377C61.8729 33.2061 62.0824 32.8315 62.3574 32.5142C62.6367 32.1925 62.9795 31.945 63.3857 31.7715C63.792 31.5938 64.2554 31.5049 64.7759 31.5049C65.2625 31.5049 65.6963 31.5853 66.0771 31.7461C66.458 31.9027 66.7796 32.1291 67.042 32.4253C67.3044 32.7173 67.5033 33.0706 67.6387 33.4854C67.7783 33.8958 67.8481 34.3571 67.8481 34.8691V35.6816H62.313V34.4058H65.9058V34.2534C65.9058 34.0122 65.8613 33.8006 65.7725 33.6187C65.6878 33.4367 65.5609 33.297 65.3916 33.1997C65.2266 33.0981 65.0171 33.0474 64.7632 33.0474C64.522 33.0474 64.321 33.0981 64.1602 33.1997C63.9993 33.3013 63.8703 33.4451 63.7729 33.6313C63.6799 33.8133 63.6121 34.027 63.5698 34.2725C63.5275 34.5137 63.5063 34.7739 63.5063 35.0532V35.2944C63.5063 35.561 63.5423 35.8044 63.6143 36.0244C63.6862 36.2445 63.792 36.4328 63.9316 36.5894C64.0713 36.7459 64.2406 36.8687 64.4395 36.9575C64.6383 37.0464 64.8647 37.0908 65.1187 37.0908C65.4318 37.0908 65.7301 37.0316 66.0137 36.9131C66.2972 36.7904 66.5426 36.5999 66.75 36.3418L67.6768 37.4019C67.5371 37.605 67.3403 37.8018 67.0864 37.9922C66.8368 38.1784 66.5363 38.3307 66.1851 38.4492C65.8338 38.5677 65.436 38.627 64.9917 38.627ZM63.5889 30.7178L64.8457 28.7437H66.9658L65.2075 30.7178H63.5889ZM70.7998 33.2314V38.5H68.8193V31.6318H70.6792L70.7998 33.2314ZM72.8501 31.5811L72.8184 33.4282C72.7337 33.4155 72.6237 33.4049 72.4883 33.3965C72.3529 33.3838 72.2365 33.3774 72.1392 33.3774C71.8853 33.3774 71.6652 33.4092 71.479 33.4727C71.297 33.5319 71.1447 33.6208 71.022 33.7393C70.9035 33.8577 70.8146 34.0059 70.7554 34.1836C70.6961 34.3571 70.6665 34.5581 70.6665 34.7866L70.292 34.6025C70.292 34.1497 70.3364 33.735 70.4253 33.3584C70.5142 32.9818 70.6432 32.6559 70.8125 32.3809C70.9818 32.1016 71.1891 31.8857 71.4346 31.7334C71.68 31.5811 71.9593 31.5049 72.2725 31.5049C72.374 31.5049 72.4777 31.5112 72.5835 31.5239C72.6893 31.5366 72.7782 31.5557 72.8501 31.5811ZM76.7729 38.627C76.2271 38.627 75.7383 38.5402 75.3066 38.3667C74.875 38.1932 74.509 37.9541 74.2085 37.6494C73.9123 37.3405 73.6859 36.985 73.5293 36.583C73.3727 36.181 73.2944 35.7515 73.2944 35.2944V35.0532C73.2944 34.5412 73.3664 34.0693 73.5103 33.6377C73.6541 33.2061 73.8636 32.8315 74.1387 32.5142C74.418 32.1925 74.7607 31.945 75.167 31.7715C75.5732 31.5938 76.0366 31.5049 76.5571 31.5049C77.0438 31.5049 77.4775 31.5853 77.8584 31.7461C78.2393 31.9027 78.5609 32.1291 78.8232 32.4253C79.0856 32.7173 79.2845 33.0706 79.4199 33.4854C79.5596 33.8958 79.6294 34.3571 79.6294 34.8691V35.6816H74.0942V34.4058H77.687V34.2534C77.687 34.0122 77.6426 33.8006 77.5537 33.6187C77.4691 33.4367 77.3421 33.297 77.1729 33.1997C77.0078 33.0981 76.7983 33.0474 76.5444 33.0474C76.3032 33.0474 76.1022 33.0981 75.9414 33.1997C75.7806 33.3013 75.6515 33.4451 75.5542 33.6313C75.4611 33.8133 75.3934 34.027 75.3511 34.2725C75.3088 34.5137 75.2876 34.7739 75.2876 35.0532V35.2944C75.2876 35.561 75.3236 35.8044 75.3955 36.0244C75.4674 36.2445 75.5732 36.4328 75.7129 36.5894C75.8525 36.7459 76.0218 36.8687 76.2207 36.9575C76.4196 37.0464 76.646 37.0908 76.8999 37.0908C77.2131 37.0908 77.5114 37.0316 77.7949 36.9131C78.0785 36.7904 78.3239 36.5999 78.5312 36.3418L79.458 37.4019C79.3184 37.605 79.1216 37.8018 78.8677 37.9922C78.618 38.1784 78.3175 38.3307 77.9663 38.4492C77.6151 38.5677 77.2173 38.627 76.7729 38.627ZM82.5811 33.2314V38.5H80.6006V31.6318H82.4604L82.5811 33.2314ZM84.6313 31.5811L84.5996 33.4282C84.515 33.4155 84.4049 33.4049 84.2695 33.3965C84.1341 33.3838 84.0177 33.3774 83.9204 33.3774C83.6665 33.3774 83.4465 33.4092 83.2603 33.4727C83.0783 33.5319 82.9259 33.6208 82.8032 33.7393C82.6847 33.8577 82.5959 34.0059 82.5366 34.1836C82.4774 34.3571 82.4478 34.5581 82.4478 34.7866L82.0732 34.6025C82.0732 34.1497 82.1177 33.735 82.2065 33.3584C82.2954 32.9818 82.4245 32.6559 82.5938 32.3809C82.763 32.1016 82.9704 31.8857 83.2158 31.7334C83.4613 31.5811 83.7406 31.5049 84.0537 31.5049C84.1553 31.5049 84.259 31.5112 84.3647 31.5239C84.4705 31.5366 84.5594 31.5557 84.6313 31.5811ZM92.3374 36.5894C92.3374 36.4624 92.2972 36.3503 92.2168 36.2529C92.1406 36.1556 92.001 36.0667 91.7979 35.9863C91.599 35.9059 91.3175 35.8255 90.9536 35.7451C90.6108 35.6732 90.2913 35.5801 89.9951 35.4658C89.6989 35.3473 89.4408 35.2056 89.2207 35.0405C89.0007 34.8713 88.8293 34.6724 88.7065 34.4438C88.5838 34.2111 88.5225 33.9466 88.5225 33.6504C88.5225 33.3626 88.5838 33.0897 88.7065 32.8315C88.8335 32.5734 89.0155 32.3449 89.2524 32.146C89.4937 31.9471 89.7856 31.7905 90.1284 31.6763C90.4754 31.562 90.869 31.5049 91.3091 31.5049C91.9142 31.5049 92.4368 31.6001 92.877 31.7905C93.3171 31.9767 93.6556 32.2391 93.8926 32.5776C94.1296 32.9119 94.248 33.2949 94.248 33.7266H92.2676C92.2676 33.5488 92.2337 33.3944 92.166 33.2632C92.0983 33.132 91.9946 33.0304 91.855 32.9585C91.7153 32.8823 91.5312 32.8442 91.3027 32.8442C91.125 32.8442 90.9684 32.876 90.833 32.9395C90.7018 32.9987 90.5981 33.0812 90.522 33.187C90.45 33.2928 90.4141 33.4155 90.4141 33.5552C90.4141 33.6525 90.4352 33.7414 90.4775 33.8218C90.5241 33.8979 90.5939 33.9699 90.687 34.0376C90.7843 34.1011 90.9092 34.1582 91.0615 34.209C91.2181 34.2598 91.4085 34.3084 91.6328 34.355C92.111 34.4438 92.5469 34.5687 92.9404 34.7295C93.3382 34.8903 93.6556 35.1125 93.8926 35.396C94.1338 35.6795 94.2544 36.054 94.2544 36.5195C94.2544 36.8242 94.1846 37.1035 94.0449 37.3574C93.9095 37.6113 93.7127 37.8335 93.4546 38.0239C93.1965 38.2144 92.8875 38.3625 92.5278 38.4683C92.1681 38.5741 91.7619 38.627 91.3091 38.627C90.6616 38.627 90.1136 38.5106 89.665 38.2778C89.2165 38.0451 88.8779 37.7531 88.6494 37.4019C88.4251 37.0464 88.313 36.6825 88.313 36.3101H90.1729C90.1813 36.5386 90.2384 36.7248 90.3442 36.8687C90.4543 37.0125 90.596 37.1183 90.7695 37.186C90.943 37.2495 91.1377 37.2812 91.3535 37.2812C91.5693 37.2812 91.7492 37.2516 91.8931 37.1924C92.0369 37.1331 92.147 37.0527 92.2231 36.9512C92.2993 36.8454 92.3374 36.7248 92.3374 36.5894ZM98.8501 31.6318V33.022H94.7749V31.6318H98.8501ZM95.708 29.9307H97.6948V36.3481C97.6948 36.5386 97.7181 36.6846 97.7646 36.7861C97.8112 36.8877 97.8874 36.9596 97.9932 37.002C98.099 37.04 98.2344 37.0591 98.3994 37.0591C98.5179 37.0591 98.6195 37.0549 98.7041 37.0464C98.7887 37.0379 98.867 37.0273 98.939 37.0146V38.4492C98.7697 38.5042 98.5898 38.5465 98.3994 38.5762C98.209 38.61 98.0016 38.627 97.7773 38.627C97.3499 38.627 96.9797 38.5571 96.6665 38.4175C96.3576 38.2778 96.1206 38.0578 95.9556 37.7573C95.7905 37.4526 95.708 37.057 95.708 36.5703V29.9307ZM99.3389 35.1357V35.0024C99.3389 34.4989 99.4108 34.0355 99.5547 33.6123C99.6986 33.1849 99.9102 32.8146 100.189 32.5015C100.469 32.1883 100.812 31.945 101.218 31.7715C101.624 31.5938 102.09 31.5049 102.614 31.5049C103.147 31.5049 103.617 31.5938 104.023 31.7715C104.434 31.945 104.779 32.1883 105.058 32.5015C105.337 32.8146 105.549 33.1849 105.693 33.6123C105.837 34.0355 105.909 34.4989 105.909 35.0024V35.1357C105.909 35.6351 105.837 36.0985 105.693 36.5259C105.549 36.9491 105.337 37.3193 105.058 37.6367C104.779 37.9499 104.436 38.1932 104.03 38.3667C103.624 38.5402 103.156 38.627 102.627 38.627C102.102 38.627 101.635 38.5402 101.224 38.3667C100.814 38.1932 100.469 37.9499 100.189 37.6367C99.9102 37.3193 99.6986 36.9491 99.5547 36.5259C99.4108 36.0985 99.3389 35.6351 99.3389 35.1357ZM101.326 35.0024V35.1357C101.326 35.4066 101.347 35.6605 101.389 35.8975C101.436 36.1344 101.51 36.3418 101.611 36.5195C101.713 36.6973 101.846 36.8369 102.011 36.9385C102.181 37.0358 102.386 37.0845 102.627 37.0845C102.868 37.0845 103.071 37.0358 103.236 36.9385C103.401 36.8369 103.535 36.6973 103.636 36.5195C103.738 36.3418 103.81 36.1344 103.852 35.8975C103.899 35.6605 103.922 35.4066 103.922 35.1357V35.0024C103.922 34.7358 103.899 34.4862 103.852 34.2534C103.81 34.0164 103.738 33.807 103.636 33.625C103.535 33.443 103.399 33.3013 103.23 33.1997C103.065 33.0981 102.86 33.0474 102.614 33.0474C102.377 33.0474 102.176 33.0981 102.011 33.1997C101.846 33.3013 101.713 33.443 101.611 33.625C101.51 33.807 101.436 34.0164 101.389 34.2534C101.347 34.4862 101.326 34.7358 101.326 35.0024ZM109.819 37.0845C110.03 37.0845 110.215 37.0443 110.371 36.9639C110.528 36.8835 110.648 36.7713 110.733 36.6274C110.822 36.4793 110.866 36.3016 110.866 36.0942H112.732C112.732 36.5936 112.603 37.0337 112.345 37.4146C112.091 37.7954 111.749 38.0938 111.317 38.3096C110.885 38.5212 110.399 38.627 109.857 38.627C109.324 38.627 108.858 38.5402 108.46 38.3667C108.063 38.189 107.73 37.9414 107.464 37.624C107.197 37.3066 106.996 36.9385 106.861 36.5195C106.73 36.0964 106.664 35.6393 106.664 35.1484V34.9834C106.664 34.4967 106.73 34.0418 106.861 33.6187C106.996 33.1955 107.197 32.8252 107.464 32.5078C107.73 32.1904 108.061 31.945 108.454 31.7715C108.852 31.5938 109.317 31.5049 109.851 31.5049C110.413 31.5049 110.911 31.6128 111.342 31.8286C111.778 32.0444 112.119 32.3555 112.364 32.7617C112.61 33.1637 112.732 33.6483 112.732 34.2153H110.866C110.866 33.9953 110.826 33.7985 110.746 33.625C110.669 33.4473 110.551 33.3076 110.39 33.2061C110.234 33.1003 110.039 33.0474 109.806 33.0474C109.565 33.0474 109.366 33.1003 109.209 33.2061C109.057 33.3076 108.941 33.4494 108.86 33.6313C108.78 33.8133 108.725 34.0207 108.695 34.2534C108.666 34.4819 108.651 34.7253 108.651 34.9834V35.1484C108.651 35.4108 108.666 35.6605 108.695 35.8975C108.725 36.1302 108.78 36.3354 108.86 36.5132C108.945 36.6909 109.063 36.8306 109.216 36.9321C109.368 37.0337 109.569 37.0845 109.819 37.0845ZM115.709 28.7437V38.5H113.723V28.7437H115.709ZM120.07 31.6318L117.081 35.085L115.5 36.6719L114.707 35.3325L115.989 33.6758L117.684 31.6318H120.07ZM117.976 38.5L116.04 35.3452L117.461 34.2344L120.248 38.5H117.976ZM124.406 36.5894C124.406 36.4624 124.366 36.3503 124.285 36.2529C124.209 36.1556 124.069 36.0667 123.866 35.9863C123.667 35.9059 123.386 35.8255 123.022 35.7451C122.679 35.6732 122.36 35.5801 122.063 35.4658C121.767 35.3473 121.509 35.2056 121.289 35.0405C121.069 34.8713 120.898 34.6724 120.775 34.4438C120.652 34.2111 120.591 33.9466 120.591 33.6504C120.591 33.3626 120.652 33.0897 120.775 32.8315C120.902 32.5734 121.084 32.3449 121.321 32.146C121.562 31.9471 121.854 31.7905 122.197 31.6763C122.544 31.562 122.937 31.5049 123.377 31.5049C123.983 31.5049 124.505 31.6001 124.945 31.7905C125.385 31.9767 125.724 32.2391 125.961 32.5776C126.198 32.9119 126.316 33.2949 126.316 33.7266H124.336C124.336 33.5488 124.302 33.3944 124.234 33.2632C124.167 33.132 124.063 33.0304 123.923 32.9585C123.784 32.8823 123.6 32.8442 123.371 32.8442C123.193 32.8442 123.037 32.876 122.901 32.9395C122.77 32.9987 122.667 33.0812 122.59 33.187C122.518 33.2928 122.482 33.4155 122.482 33.5552C122.482 33.6525 122.504 33.7414 122.546 33.8218C122.592 33.8979 122.662 33.9699 122.755 34.0376C122.853 34.1011 122.978 34.1582 123.13 34.209C123.286 34.2598 123.477 34.3084 123.701 34.355C124.179 34.4438 124.615 34.5687 125.009 34.7295C125.407 34.8903 125.724 35.1125 125.961 35.396C126.202 35.6795 126.323 36.054 126.323 36.5195C126.323 36.8242 126.253 37.1035 126.113 37.3574C125.978 37.6113 125.781 37.8335 125.523 38.0239C125.265 38.2144 124.956 38.3625 124.596 38.4683C124.236 38.5741 123.83 38.627 123.377 38.627C122.73 38.627 122.182 38.5106 121.733 38.2778C121.285 38.0451 120.946 37.7531 120.718 37.4019C120.493 37.0464 120.381 36.6825 120.381 36.3101H122.241C122.25 36.5386 122.307 36.7248 122.413 36.8687C122.523 37.0125 122.664 37.1183 122.838 37.186C123.011 37.2495 123.206 37.2812 123.422 37.2812C123.638 37.2812 123.818 37.2516 123.961 37.1924C124.105 37.1331 124.215 37.0527 124.292 36.9512C124.368 36.8454 124.406 36.7248 124.406 36.5894Z" fill="#419BB8"/></g><g data-node-id="159:519"><path data-node-id="159:520" d="M171 29.5L175.5 34L171 38.5" stroke="#419BB8" stroke-width="2" stroke-linecap="round" stroke-linejoin="round"/></g></g><defs><linearGradient id="paint0_linear_159_515" x1="-1.15437e-06" y1="6" x2="195" y2="61" gradientUnits="userSpaceOnUse"><stop stop-color="#419BB8" stop-opacity="0.5"/><stop offset="0.526042" stop-color="#0D333F" stop-opacity="0.4"/><stop offset="1" stop-opacity="0.3"/></linearGradient></defs></svg>
