<?xml version="1.0" encoding="UTF-8"?>
<svg xmlns="http://www.w3.org/2000/svg" width="66" height="66" viewBox="0 0 66 66" fill="none"><g data-node-id="210:4789"><path d="M0 12C0 5.37258 5.37258 0 12 0H54C60.6274 0 66 5.37258 66 12V54C66 60.6274 60.6274 66 54 66H12C5.37258 66 0 60.6274 0 54V12Z" fill="#FFEBE6"/><g data-node-id="210:4797"><path data-node-id="210:4780" d="M19.7778 27.4375H46.2222M19.7778 27.4375C17.6914 27.4375 16 25.9265 16 24.0625V22.375C16 20.511 17.6914 19 19.7778 19H46.2222C48.3086 19 50 20.511 50 22.375V24.0625C50 25.9265 48.3086 27.4375 46.2222 27.4375M19.7778 27.4375L19.7778 42.625C19.7778 44.489 21.4691 46 23.5556 46H42.4444C44.5309 46 46.2222 44.489 46.2222 42.625V27.4375M27.3333 32.5H36.7778" stroke="#F79118" stroke-width="1.5" stroke-linecap="round" stroke-linejoin="round"/></g></g></svg>
