<?xml version="1.0" encoding="UTF-8"?>
<svg xmlns="http://www.w3.org/2000/svg" width="166" height="57" viewBox="0 0 166 57" fill="none"><g data-node-id="352:1064"><rect x="0.5" y="0.5" width="165" height="56" rx="8" fill="white"/><rect x="0.5" y="0.5" width="165" height="56" rx="8" stroke="#CCCCCC"/><g data-node-id="352:1065"><path data-node-id="352:1066" d="M22.948 24.18C22.34 24.18 21.7907 24.2867 21.3 24.5C20.8093 24.7027 20.3933 25.0067 20.052 25.412C19.7107 25.8067 19.4493 26.292 19.268 26.868C19.0867 27.4333 18.996 28.0733 18.996 28.788C18.996 29.7267 19.14 30.5427 19.428 31.236C19.7267 31.9293 20.164 32.4627 20.74 32.836C21.3267 33.2093 22.0573 33.396 22.932 33.396C23.4333 33.396 23.908 33.3533 24.356 33.268C24.804 33.1827 25.2413 33.076 25.668 32.948V34.196C25.2413 34.356 24.7987 34.4733 24.34 34.548C23.892 34.6227 23.3533 34.66 22.724 34.66C21.5613 34.66 20.5907 34.42 19.812 33.94C19.0333 33.46 18.4467 32.7773 18.052 31.892C17.668 31.0067 17.476 29.9667 17.476 28.772C17.476 27.908 17.5933 27.1187 17.828 26.404C18.0733 25.6893 18.4253 25.0707 18.884 24.548C19.3533 24.0253 19.9293 23.6253 20.612 23.348C21.2947 23.06 22.0787 22.916 22.964 22.916C23.5507 22.916 24.116 22.9747 24.66 23.092C25.204 23.2093 25.6893 23.3747 26.116 23.588L25.54 24.804C25.188 24.644 24.7933 24.5 24.356 24.372C23.9293 24.244 23.46 24.18 22.948 24.18ZM31.2174 25.78C32.2627 25.78 33.036 26.0093 33.5374 26.468C34.0387 26.9267 34.2894 27.6573 34.2894 28.66V34.5H33.2654L32.9934 33.284H32.9294C32.684 33.5933 32.428 33.8547 32.1614 34.068C31.9054 34.2707 31.6067 34.42 31.2654 34.516C30.9347 34.612 30.5294 34.66 30.0494 34.66C29.5374 34.66 29.0734 34.5693 28.6574 34.388C28.252 34.2067 27.932 33.9293 27.6974 33.556C27.4627 33.172 27.3454 32.692 27.3454 32.116C27.3454 31.2627 27.6814 30.6067 28.3534 30.148C29.0254 29.6787 30.06 29.4227 31.4574 29.38L32.9134 29.332V28.82C32.9134 28.1053 32.7587 27.6093 32.4494 27.332C32.14 27.0547 31.7027 26.916 31.1374 26.916C30.6894 26.916 30.2627 26.9853 29.8574 27.124C29.452 27.252 29.0734 27.4013 28.7214 27.572L28.2894 26.516C28.6627 26.3133 29.1054 26.1427 29.6174 26.004C30.1294 25.8547 30.6627 25.78 31.2174 25.78ZM31.6334 30.356C30.5667 30.3987 29.8254 30.5693 29.4094 30.868C29.004 31.1667 28.8014 31.588 28.8014 32.132C28.8014 32.612 28.9454 32.964 29.2334 33.188C29.532 33.412 29.9107 33.524 30.3694 33.524C31.0947 33.524 31.6974 33.3267 32.1774 32.932C32.6574 32.5267 32.8974 31.908 32.8974 31.076V30.308L31.6334 30.356ZM40.9381 25.764C41.0981 25.764 41.2688 25.7747 41.4501 25.796C41.6421 25.8067 41.8075 25.828 41.9461 25.86L41.7701 27.156C41.6315 27.124 41.4768 27.0973 41.3061 27.076C41.1461 27.0547 40.9915 27.044 40.8421 27.044C40.5115 27.044 40.1968 27.1133 39.8981 27.252C39.5995 27.3907 39.3328 27.588 39.0981 27.844C38.8635 28.0893 38.6768 28.388 38.5381 28.74C38.4101 29.092 38.3461 29.4867 38.3461 29.924V34.5H36.9381V25.924H38.0901L38.2501 27.492H38.3141C38.4955 27.172 38.7141 26.884 38.9701 26.628C39.2261 26.3613 39.5195 26.1533 39.8501 26.004C40.1808 25.844 40.5435 25.764 40.9381 25.764ZM46.4115 33.508C46.6248 33.508 46.8435 33.492 47.0675 33.46C47.2915 33.4173 47.4728 33.3747 47.6115 33.332V34.404C47.4622 34.4787 47.2488 34.5373 46.9715 34.58C46.6942 34.6333 46.4275 34.66 46.1715 34.66C45.7235 34.66 45.3075 34.5853 44.9235 34.436C44.5502 34.276 44.2462 34.004 44.0115 33.62C43.7768 33.236 43.6595 32.6973 43.6595 32.004V27.012H42.4435V26.34L43.6755 25.78L44.2355 23.956H45.0675V25.924H47.5475V27.012H45.0675V31.972C45.0675 32.4947 45.1902 32.884 45.4355 33.14C45.6915 33.3853 46.0168 33.508 46.4115 33.508ZM52.6408 25.764C53.3768 25.764 54.0061 25.924 54.5288 26.244C55.0621 26.564 55.4674 27.0173 55.7448 27.604C56.0328 28.18 56.1768 28.8573 56.1768 29.636V30.484H50.3048C50.3261 31.4547 50.5714 32.196 51.0408 32.708C51.5208 33.2093 52.1874 33.46 53.0408 33.46C53.5848 33.46 54.0648 33.412 54.4808 33.316C54.9074 33.2093 55.3448 33.06 55.7928 32.868V34.1C55.3554 34.292 54.9234 34.4307 54.4968 34.516C54.0701 34.612 53.5634 34.66 52.9768 34.66C52.1661 34.66 51.4461 34.4947 50.8168 34.164C50.1981 33.8333 49.7128 33.3427 49.3608 32.692C49.0194 32.0307 48.8488 31.2253 48.8488 30.276C48.8488 29.3373 49.0034 28.532 49.3128 27.86C49.6328 27.188 50.0754 26.6707 50.6408 26.308C51.2168 25.9453 51.8834 25.764 52.6408 25.764ZM52.6248 26.916C51.9528 26.916 51.4194 27.1347 51.0248 27.572C50.6408 27.9987 50.4114 28.596 50.3368 29.364H54.7048C54.7048 28.8733 54.6301 28.4467 54.4808 28.084C54.3314 27.7213 54.1021 27.4387 53.7928 27.236C53.4941 27.0227 53.1048 26.916 52.6248 26.916Z" fill="#666666"/></g></g></svg>
