<?xml version="1.0" encoding="UTF-8"?>
<svg xmlns="http://www.w3.org/2000/svg" width="17" height="16" viewBox="0 0 17 16" fill="none"><path data-node-id="I165:512;5902:7678;5902:7034" d="M16.5443 15.0264C15.3272 12.9222 13.4515 11.4134 11.2626 10.6982C12.3454 10.0536 13.1866 9.07146 13.6571 7.90254C14.1276 6.73362 14.2014 5.44256 13.8672 4.22764C13.5329 3.01271 12.8091 1.9411 11.8068 1.17736C10.8046 0.413628 9.57939 0 8.31932 0C7.05925 0 5.83403 0.413628 4.83179 1.17736C3.82956 1.9411 3.10573 3.01271 2.77148 4.22764C2.43723 5.44256 2.51102 6.73362 2.98154 7.90254C3.45205 9.07146 4.29327 10.0536 5.376 10.6982C3.18709 11.4126 1.31146 12.9214 0.0943303 15.0264C0.0496962 15.0992 0.0200907 15.1802 0.00726055 15.2646C-0.00556957 15.349 -0.00136439 15.4351 0.019628 15.5179C0.0406203 15.6006 0.0779747 15.6784 0.129487 15.7464C0.180999 15.8145 0.245626 15.8716 0.319554 15.9143C0.393483 15.957 0.475215 15.9845 0.559929 15.9951C0.644643 16.0057 0.730623 15.9992 0.812795 15.976C0.894968 15.9529 0.971669 15.9135 1.03837 15.8602C1.10508 15.8069 1.16043 15.7408 1.20117 15.6658C2.7068 13.0637 5.36801 11.5101 8.31932 11.5101C11.2706 11.5101 13.9318 13.0637 15.4375 15.6658C15.4782 15.7408 15.5336 15.8069 15.6003 15.8602C15.667 15.9135 15.7437 15.9529 15.8258 15.976C15.908 15.9992 15.994 16.0057 16.0787 15.9951C16.1634 15.9845 16.2452 15.957 16.3191 15.9143C16.393 15.8716 16.4576 15.8145 16.5092 15.7464C16.5607 15.6784 16.598 15.6006 16.619 15.5179C16.64 15.4351 16.6442 15.349 16.6314 15.2646C16.6185 15.1802 16.5889 15.0992 16.5443 15.0264ZM3.84401 5.75615C3.844 4.87102 4.10648 4.00576 4.59823 3.2698C5.08999 2.53384 5.78893 1.96022 6.60669 1.6215C7.42445 1.28277 8.32428 1.19415 9.19241 1.36683C10.0605 1.53951 10.858 1.96574 11.4838 2.59162C12.1097 3.21751 12.536 4.01493 12.7086 4.88306C12.8813 5.75119 12.7927 6.65102 12.454 7.46878C12.1152 8.28654 11.5416 8.98548 10.8057 9.47724C10.0697 9.96899 9.20445 10.2315 8.31932 10.2315C7.13278 10.2302 5.99521 9.75828 5.1562 8.91927C4.31719 8.08027 3.84527 6.94269 3.84401 5.75615Z" fill="#202020"/></svg>
