<?xml version="1.0" encoding="UTF-8"?>
<svg xmlns="http://www.w3.org/2000/svg" width="66" height="66" viewBox="0 0 66 66" fill="none"><g data-node-id="I169:595;5905:9001"><path d="M0 12C0 5.37258 5.37258 0 12 0H54C60.6274 0 66 5.37258 66 12V54C66 60.6274 60.6274 66 54 66H12C5.37258 66 0 60.6274 0 54V12Z" fill="#E4FAEF"/><g data-node-id="I169:595;5905:9002"><path data-node-id="I169:595;5905:9002;5905:9071" d="M41.3125 27.2955V26.4688C41.3125 22.7459 35.6971 19.9375 28.25 19.9375C20.8029 19.9375 15.1875 22.7459 15.1875 26.4688V32.4062C15.1875 35.5071 19.084 37.9712 24.6875 38.7089V39.5312C24.6875 43.2541 30.3029 46.0625 37.75 46.0625C45.1971 46.0625 50.8125 43.2541 50.8125 39.5312V33.5938C50.8125 30.5211 47.0392 28.0541 41.3125 27.2955ZM48.4375 33.5938C48.4375 35.5561 43.8671 37.75 37.75 37.75C37.1963 37.75 36.6471 37.7307 36.1053 37.6951C39.3071 36.5284 41.3125 34.6328 41.3125 32.4062V29.6958C45.7463 30.3563 48.4375 32.1495 48.4375 33.5938ZM24.6875 36.3027V32.7714C25.8687 32.9253 27.0588 33.0017 28.25 33C29.4412 33.0017 30.6313 32.9253 31.8125 32.7714V36.3027C30.633 36.477 29.4423 36.5638 28.25 36.5625C27.0577 36.5638 25.867 36.477 24.6875 36.3027ZM38.9375 30.3177V32.4062C38.9375 33.6516 37.0954 34.9891 34.1875 35.801V32.332C36.1038 31.8674 37.7262 31.1757 38.9375 30.3177ZM28.25 22.3125C34.3671 22.3125 38.9375 24.5064 38.9375 26.4688C38.9375 28.4311 34.3671 30.625 28.25 30.625C22.1329 30.625 17.5625 28.4311 17.5625 26.4688C17.5625 24.5064 22.1329 22.3125 28.25 22.3125ZM17.5625 32.4062V30.3177C18.7738 31.1757 20.3962 31.8674 22.3125 32.332V35.801C19.4046 34.9891 17.5625 33.6516 17.5625 32.4062ZM27.0625 39.5312V38.9123C27.4529 38.9271 27.8477 38.9375 28.25 38.9375C28.8259 38.9375 29.3885 38.9182 29.9407 38.8855C30.5541 39.1051 31.179 39.2915 31.8125 39.4437V42.926C28.9046 42.1141 27.0625 40.7766 27.0625 39.5312ZM34.1875 43.4277V39.8875C35.3684 40.0462 36.5585 40.1256 37.75 40.125C38.9412 40.1267 40.1313 40.0503 41.3125 39.8964V43.4277C38.9501 43.7741 36.5499 43.7741 34.1875 43.4277ZM43.6875 42.926V39.457C45.6038 38.9924 47.2262 38.3007 48.4375 37.4427V39.5312C48.4375 40.7766 46.5954 42.1141 43.6875 42.926Z" fill="#259678"/></g></g></svg>
