<?xml version="1.0" encoding="UTF-8"?>
<svg xmlns="http://www.w3.org/2000/svg" width="166" height="57" viewBox="0 0 166 57" fill="none"><g data-node-id="352:1034"><rect x="0.5" y="0.5" width="165" height="56" rx="8" fill="white"/><rect x="0.5" y="0.5" width="165" height="56" rx="8" stroke="#CCCCCC"/><g data-node-id="352:1035"><path data-node-id="352:1036" d="M24.436 34.5H18.052V23.076H24.436V24.34H19.492V27.908H24.148V29.156H19.492V33.236H24.436V34.5ZM32.3346 32.132C32.3346 32.6867 32.196 33.1507 31.9186 33.524C31.6413 33.8973 31.2466 34.18 30.7346 34.372C30.2226 34.564 29.6146 34.66 28.9106 34.66C28.3133 34.66 27.796 34.612 27.3586 34.516C26.932 34.42 26.5533 34.2867 26.2226 34.116V32.836C26.564 33.0067 26.9746 33.1667 27.4546 33.316C27.9453 33.4547 28.4413 33.524 28.9426 33.524C29.6573 33.524 30.1746 33.412 30.4946 33.188C30.8146 32.9533 30.9746 32.644 30.9746 32.26C30.9746 32.0467 30.916 31.8547 30.7986 31.684C30.6813 31.5133 30.468 31.3427 30.1586 31.172C29.86 31.0013 29.428 30.8093 28.8626 30.596C28.308 30.3827 27.8333 30.1693 27.4386 29.956C27.044 29.7427 26.74 29.4867 26.5266 29.188C26.3133 28.8893 26.2066 28.5053 26.2066 28.036C26.2066 27.3107 26.5 26.7507 27.0866 26.356C27.684 25.9613 28.4626 25.764 29.4226 25.764C29.9453 25.764 30.4306 25.8173 30.8786 25.924C31.3373 26.02 31.764 26.1587 32.1586 26.34L31.6786 27.46C31.444 27.3533 31.1933 27.2627 30.9266 27.188C30.6706 27.1027 30.4093 27.0387 30.1426 26.996C29.876 26.9427 29.604 26.916 29.3266 26.916C28.7506 26.916 28.308 27.012 27.9986 27.204C27.7 27.3853 27.5506 27.636 27.5506 27.956C27.5506 28.1907 27.62 28.3933 27.7586 28.564C27.8973 28.724 28.1266 28.884 28.4466 29.044C28.7773 29.1933 29.2146 29.3747 29.7586 29.588C30.3026 29.7907 30.7666 29.9987 31.1506 30.212C31.5346 30.4253 31.828 30.6867 32.0306 30.996C32.2333 31.2947 32.3346 31.6733 32.3346 32.132ZM38.4869 25.764C39.5429 25.764 40.3909 26.132 41.0309 26.868C41.6815 27.604 42.0069 28.7133 42.0069 30.196C42.0069 31.1667 41.8575 31.988 41.5589 32.66C41.2709 33.3213 40.8602 33.8227 40.3269 34.164C39.8042 34.4947 39.1855 34.66 38.4709 34.66C38.0335 34.66 37.6442 34.6013 37.3029 34.484C36.9615 34.3667 36.6682 34.2173 36.4229 34.036C36.1882 33.844 35.9855 33.636 35.8149 33.412H35.7189C35.7402 33.5933 35.7615 33.8227 35.7829 34.1C35.8042 34.3773 35.8149 34.6173 35.8149 34.82V38.34H34.4069V25.924H35.5589L35.7509 27.092H35.8149C35.9855 26.8467 36.1882 26.6227 36.4229 26.42C36.6682 26.2173 36.9562 26.0573 37.2869 25.94C37.6282 25.8227 38.0282 25.764 38.4869 25.764ZM38.2309 26.948C37.6549 26.948 37.1909 27.06 36.8389 27.284C36.4869 27.4973 36.2309 27.8227 36.0709 28.26C35.9109 28.6973 35.8255 29.252 35.8149 29.924V30.196C35.8149 30.9 35.8895 31.4973 36.0389 31.988C36.1882 32.4787 36.4389 32.852 36.7909 33.108C37.1535 33.364 37.6442 33.492 38.2629 33.492C38.7855 33.492 39.2122 33.348 39.5429 33.06C39.8842 32.772 40.1349 32.3827 40.2949 31.892C40.4655 31.3907 40.5509 30.82 40.5509 30.18C40.5509 29.1987 40.3589 28.4147 39.9749 27.828C39.6015 27.2413 39.0202 26.948 38.2309 26.948ZM47.5626 25.764C48.2986 25.764 48.928 25.924 49.4506 26.244C49.984 26.564 50.3893 27.0173 50.6666 27.604C50.9546 28.18 51.0986 28.8573 51.0986 29.636V30.484H45.2266C45.248 31.4547 45.4933 32.196 45.9626 32.708C46.4426 33.2093 47.1093 33.46 47.9626 33.46C48.5066 33.46 48.9866 33.412 49.4026 33.316C49.8293 33.2093 50.2666 33.06 50.7146 32.868V34.1C50.2773 34.292 49.8453 34.4307 49.4186 34.516C48.992 34.612 48.4853 34.66 47.8986 34.66C47.088 34.66 46.368 34.4947 45.7386 34.164C45.12 33.8333 44.6346 33.3427 44.2826 32.692C43.9413 32.0307 43.7706 31.2253 43.7706 30.276C43.7706 29.3373 43.9253 28.532 44.2346 27.86C44.5546 27.188 44.9973 26.6707 45.5626 26.308C46.1386 25.9453 46.8053 25.764 47.5626 25.764ZM47.5466 26.916C46.8746 26.916 46.3413 27.1347 45.9466 27.572C45.5626 27.9987 45.3333 28.596 45.2586 29.364H49.6266C49.6266 28.8733 49.552 28.4467 49.4026 28.084C49.2533 27.7213 49.024 27.4387 48.7146 27.236C48.416 27.0227 48.0266 26.916 47.5466 26.916ZM47.0506 22.244C47.168 22.4787 47.312 22.7453 47.4826 23.044C47.664 23.332 47.8506 23.6147 48.0426 23.892C48.2453 24.1693 48.4266 24.4093 48.5866 24.612V24.804H47.6426C47.4613 24.6547 47.2586 24.4787 47.0346 24.276C46.8106 24.0627 46.5866 23.844 46.3626 23.62C46.1493 23.3853 45.952 23.1613 45.7706 22.948C45.6 22.7347 45.4666 22.5533 45.3706 22.404V22.244H47.0506ZM56.7219 34.66C55.9645 34.66 55.2872 34.5053 54.6899 34.196C54.1032 33.8867 53.6392 33.4067 53.2979 32.756C52.9672 32.1053 52.8019 31.2733 52.8019 30.26C52.8019 29.204 52.9779 28.3453 53.3299 27.684C53.6819 27.0227 54.1565 26.5373 54.7539 26.228C55.3619 25.9187 56.0499 25.764 56.8179 25.764C57.2552 25.764 57.6765 25.812 58.0819 25.908C58.4872 25.9933 58.8179 26.1 59.0739 26.228L58.6419 27.396C58.3859 27.3 58.0872 27.2093 57.7459 27.124C57.4045 27.0387 57.0845 26.996 56.7859 26.996C56.2099 26.996 55.7352 27.1187 55.3619 27.364C54.9885 27.6093 54.7112 27.972 54.5299 28.452C54.3485 28.932 54.2579 29.5293 54.2579 30.244C54.2579 30.9267 54.3485 31.508 54.5299 31.988C54.7112 32.468 54.9832 32.8307 55.3459 33.076C55.7085 33.3213 56.1619 33.444 56.7059 33.444C57.1752 33.444 57.5859 33.396 57.9379 33.3C58.3005 33.204 58.6312 33.0867 58.9299 32.948V34.196C58.6419 34.3453 58.3219 34.4573 57.9699 34.532C57.6285 34.6173 57.2125 34.66 56.7219 34.66ZM64.2814 25.764C65.0174 25.764 65.6467 25.924 66.1694 26.244C66.7027 26.564 67.108 27.0173 67.3854 27.604C67.6734 28.18 67.8174 28.8573 67.8174 29.636V30.484H61.9454C61.9667 31.4547 62.212 32.196 62.6814 32.708C63.1614 33.2093 63.828 33.46 64.6814 33.46C65.2254 33.46 65.7054 33.412 66.1214 33.316C66.548 33.2093 66.9854 33.06 67.4334 32.868V34.1C66.996 34.292 66.564 34.4307 66.1374 34.516C65.7107 34.612 65.204 34.66 64.6174 34.66C63.8067 34.66 63.0867 34.4947 62.4574 34.164C61.8387 33.8333 61.3534 33.3427 61.0014 32.692C60.66 32.0307 60.4894 31.2253 60.4894 30.276C60.4894 29.3373 60.644 28.532 60.9534 27.86C61.2734 27.188 61.716 26.6707 62.2814 26.308C62.8574 25.9453 63.524 25.764 64.2814 25.764ZM64.2654 26.916C63.5934 26.916 63.06 27.1347 62.6654 27.572C62.2814 27.9987 62.052 28.596 61.9774 29.364H66.3454C66.3454 28.8733 66.2707 28.4467 66.1214 28.084C65.972 27.7213 65.7427 27.4387 65.4334 27.236C65.1347 27.0227 64.7454 26.916 64.2654 26.916Z" fill="#666666"/></g></g></svg>
