<?xml version="1.0" encoding="UTF-8"?>
<svg xmlns="http://www.w3.org/2000/svg" width="195" height="68" viewBox="0 0 195 68" fill="none"><g data-node-id="159:499"><rect width="195" height="68" rx="12" fill="url(#paint0_linear_159_499)" fill-opacity="0.2"/><g data-node-id="159:500"><g data-node-id="159:501"><path data-node-id="I159:501;156:550" fill-rule="evenodd" clip-rule="evenodd" d="M28.0002 26C25.791 26 24.0002 27.7909 24.0002 30C24.0002 32.2091 25.791 34 28.0002 34C30.2093 34 32.0002 32.2091 32.0002 30C32.0002 27.7909 30.2093 26 28.0002 26ZM31.6411 34.7694C33.0751 33.673 34.0002 31.9445 34.0002 30C34.0002 26.6863 31.3139 24 28.0002 24C24.6864 24 22.0002 26.6863 22.0002 30C22.0002 31.9445 22.9252 33.673 24.3592 34.7694C23.3537 35.2142 22.4287 35.8436 21.6362 36.636C21.0243 37.248 20.5095 37.939 20.1019 38.6851C19.3498 40.0619 19.6565 41.4657 20.5035 42.4584C21.319 43.414 22.6252 44 24.0002 44H32.0002C33.3751 44 34.6814 43.414 35.4968 42.4584C36.3438 41.4657 36.6505 40.0619 35.8984 38.6851C35.4908 37.939 34.976 37.248 34.3641 36.636C33.5717 35.8436 32.6466 35.2142 31.6411 34.7694ZM28.0002 36C26.1436 36 24.3632 36.7375 23.0504 38.0503C22.5744 38.5263 22.1741 39.0637 21.8571 39.6439C21.5501 40.2058 21.6492 40.7198 22.025 41.1602C22.4324 41.6376 23.166 42 24.0002 42H32.0002C32.8343 42 33.568 41.6376 33.9753 41.1602C34.3511 40.7198 34.4502 40.2058 34.1432 39.6439C33.8262 39.0637 33.4259 38.5263 32.9499 38.0503C31.6371 36.7375 29.8567 36 28.0002 36Z" fill="#419BB8"/></g><path data-node-id="159:502" d="M60.6851 33.6187V37.3447C60.5327 37.5182 60.3 37.7044 59.9868 37.9033C59.6779 38.1022 59.2822 38.2736 58.7998 38.4175C58.3174 38.5571 57.7419 38.627 57.0732 38.627C56.4681 38.627 55.918 38.5296 55.4229 38.335C54.9277 38.1361 54.5024 37.8462 54.147 37.4653C53.7915 37.0802 53.5164 36.6105 53.3218 36.0562C53.1313 35.5018 53.0361 34.867 53.0361 34.1519V33.606C53.0361 32.8908 53.1313 32.256 53.3218 31.7017C53.5122 31.1473 53.7809 30.6797 54.1279 30.2988C54.4749 29.9137 54.8875 29.6217 55.3657 29.4229C55.8439 29.224 56.3729 29.1245 56.9526 29.1245C57.7778 29.1245 58.4528 29.2578 58.9775 29.5244C59.5023 29.7868 59.9001 30.1507 60.1709 30.6162C60.446 31.0817 60.6152 31.617 60.6787 32.2222H58.6855C58.6432 31.9132 58.5586 31.6466 58.4316 31.4224C58.3089 31.1981 58.1333 31.0267 57.9048 30.9082C57.6763 30.7855 57.38 30.7241 57.0161 30.7241C56.7241 30.7241 56.4596 30.7855 56.2227 30.9082C55.9899 31.0267 55.7931 31.2065 55.6323 31.4478C55.4715 31.689 55.3488 31.9894 55.2642 32.3491C55.1795 32.7046 55.1372 33.1193 55.1372 33.5933V34.1519C55.1372 34.6258 55.1795 35.0426 55.2642 35.4023C55.353 35.762 55.4821 36.0625 55.6514 36.3037C55.8206 36.5407 56.0343 36.7205 56.2925 36.8433C56.5549 36.966 56.8595 37.0273 57.2065 37.0273C57.4774 37.0273 57.7059 37.0062 57.8921 36.9639C58.0783 36.9173 58.2306 36.8602 58.3491 36.7925C58.4676 36.7205 58.5565 36.6549 58.6157 36.5957V35.0596H56.9717V33.6187H60.6851ZM65.2363 38.627C64.6904 38.627 64.2017 38.5402 63.77 38.3667C63.3384 38.1932 62.9723 37.9541 62.6719 37.6494C62.3757 37.3405 62.1493 36.985 61.9927 36.583C61.8361 36.181 61.7578 35.7515 61.7578 35.2944V35.0532C61.7578 34.5412 61.8298 34.0693 61.9736 33.6377C62.1175 33.2061 62.327 32.8315 62.6021 32.5142C62.8813 32.1925 63.2241 31.945 63.6304 31.7715C64.0366 31.5938 64.5 31.5049 65.0205 31.5049C65.5072 31.5049 65.9409 31.5853 66.3218 31.7461C66.7026 31.9027 67.0243 32.1291 67.2866 32.4253C67.549 32.7173 67.7479 33.0706 67.8833 33.4854C68.0229 33.8958 68.0928 34.3571 68.0928 34.8691V35.6816H62.5576V34.4058H66.1504V34.2534C66.1504 34.0122 66.106 33.8006 66.0171 33.6187C65.9325 33.4367 65.8055 33.297 65.6362 33.1997C65.4712 33.0981 65.2617 33.0474 65.0078 33.0474C64.7666 33.0474 64.5656 33.0981 64.4048 33.1997C64.244 33.3013 64.1149 33.4451 64.0176 33.6313C63.9245 33.8133 63.8568 34.027 63.8145 34.2725C63.7721 34.5137 63.751 34.7739 63.751 35.0532V35.2944C63.751 35.561 63.7869 35.8044 63.8589 36.0244C63.9308 36.2445 64.0366 36.4328 64.1763 36.5894C64.3159 36.7459 64.4852 36.8687 64.6841 36.9575C64.883 37.0464 65.1094 37.0908 65.3633 37.0908C65.6764 37.0908 65.9748 37.0316 66.2583 36.9131C66.5418 36.7904 66.7873 36.5999 66.9946 36.3418L67.9214 37.4019C67.7817 37.605 67.585 37.8018 67.3311 37.9922C67.0814 38.1784 66.7809 38.3307 66.4297 38.4492C66.0785 38.5677 65.6807 38.627 65.2363 38.627ZM63.8335 30.7178L65.0903 28.7437H67.2104L65.4521 30.7178H63.8335ZM71.0444 33.2314V38.5H69.064V31.6318H70.9238L71.0444 33.2314ZM73.0947 31.5811L73.063 33.4282C72.9784 33.4155 72.8683 33.4049 72.7329 33.3965C72.5975 33.3838 72.4811 33.3774 72.3838 33.3774C72.1299 33.3774 71.9098 33.4092 71.7236 33.4727C71.5417 33.5319 71.3893 33.6208 71.2666 33.7393C71.1481 33.8577 71.0592 34.0059 71 34.1836C70.9408 34.3571 70.9111 34.5581 70.9111 34.7866L70.5366 34.6025C70.5366 34.1497 70.5811 33.735 70.6699 33.3584C70.7588 32.9818 70.8879 32.6559 71.0571 32.3809C71.2264 32.1016 71.4338 31.8857 71.6792 31.7334C71.9246 31.5811 72.2039 31.5049 72.5171 31.5049C72.6187 31.5049 72.7223 31.5112 72.8281 31.5239C72.9339 31.5366 73.0228 31.5557 73.0947 31.5811ZM77.0176 38.627C76.4717 38.627 75.9829 38.5402 75.5513 38.3667C75.1196 38.1932 74.7536 37.9541 74.4531 37.6494C74.1569 37.3405 73.9305 36.985 73.7739 36.583C73.6174 36.181 73.5391 35.7515 73.5391 35.2944V35.0532C73.5391 34.5412 73.611 34.0693 73.7549 33.6377C73.8988 33.2061 74.1082 32.8315 74.3833 32.5142C74.6626 32.1925 75.0054 31.945 75.4116 31.7715C75.8179 31.5938 76.2812 31.5049 76.8018 31.5049C77.2884 31.5049 77.7222 31.5853 78.103 31.7461C78.4839 31.9027 78.8055 32.1291 79.0679 32.4253C79.3302 32.7173 79.5291 33.0706 79.6646 33.4854C79.8042 33.8958 79.874 34.3571 79.874 34.8691V35.6816H74.3389V34.4058H77.9316V34.2534C77.9316 34.0122 77.8872 33.8006 77.7983 33.6187C77.7137 33.4367 77.5868 33.297 77.4175 33.1997C77.2524 33.0981 77.043 33.0474 76.7891 33.0474C76.5479 33.0474 76.3468 33.0981 76.186 33.1997C76.0252 33.3013 75.8962 33.4451 75.7988 33.6313C75.7057 33.8133 75.638 34.027 75.5957 34.2725C75.5534 34.5137 75.5322 34.7739 75.5322 35.0532V35.2944C75.5322 35.561 75.5682 35.8044 75.6401 36.0244C75.7121 36.2445 75.8179 36.4328 75.9575 36.5894C76.0972 36.7459 76.2664 36.8687 76.4653 36.9575C76.6642 37.0464 76.8906 37.0908 77.1445 37.0908C77.4577 37.0908 77.756 37.0316 78.0396 36.9131C78.3231 36.7904 78.5685 36.5999 78.7759 36.3418L79.7026 37.4019C79.563 37.605 79.3662 37.8018 79.1123 37.9922C78.8626 38.1784 78.5622 38.3307 78.2109 38.4492C77.8597 38.5677 77.4619 38.627 77.0176 38.627ZM82.8257 33.2314V38.5H80.8452V31.6318H82.7051L82.8257 33.2314ZM84.876 31.5811L84.8442 33.4282C84.7596 33.4155 84.6496 33.4049 84.5142 33.3965C84.3787 33.3838 84.2624 33.3774 84.165 33.3774C83.9111 33.3774 83.6911 33.4092 83.5049 33.4727C83.3229 33.5319 83.1706 33.6208 83.0479 33.7393C82.9294 33.8577 82.8405 34.0059 82.7812 34.1836C82.722 34.3571 82.6924 34.5581 82.6924 34.7866L82.3179 34.6025C82.3179 34.1497 82.3623 33.735 82.4512 33.3584C82.54 32.9818 82.6691 32.6559 82.8384 32.3809C83.0076 32.1016 83.215 31.8857 83.4604 31.7334C83.7059 31.5811 83.9852 31.5049 84.2983 31.5049C84.3999 31.5049 84.5036 31.5112 84.6094 31.5239C84.7152 31.5366 84.804 31.5557 84.876 31.5811ZM92.9565 36.8433V31.6318H94.9497V38.5H93.0835L92.9565 36.8433ZM93.166 35.4404L93.7119 35.4277C93.7119 35.889 93.6569 36.3143 93.5469 36.7036C93.4411 37.0929 93.2803 37.4315 93.0645 37.7192C92.8529 38.007 92.5884 38.2313 92.271 38.3921C91.9578 38.5487 91.5918 38.627 91.1729 38.627C90.8343 38.627 90.5233 38.5804 90.2397 38.4873C89.9604 38.39 89.7192 38.2397 89.5161 38.0366C89.313 37.8293 89.1564 37.5648 89.0464 37.2432C88.9364 36.9173 88.8813 36.528 88.8813 36.0752V31.6318H90.8618V36.0879C90.8618 36.2656 90.883 36.418 90.9253 36.5449C90.9718 36.6676 91.0332 36.7692 91.1094 36.8496C91.1898 36.93 91.2871 36.9893 91.4014 37.0273C91.5199 37.0654 91.6489 37.0845 91.7886 37.0845C92.1398 37.0845 92.4149 37.0125 92.6138 36.8687C92.8169 36.7205 92.9587 36.5238 93.0391 36.2783C93.1237 36.0286 93.166 35.7493 93.166 35.4404ZM99.7295 31.6318V33.022H95.6543V31.6318H99.7295ZM96.5874 29.9307H98.5742V36.3481C98.5742 36.5386 98.5975 36.6846 98.644 36.7861C98.6906 36.8877 98.7668 36.9596 98.8726 37.002C98.9784 37.04 99.1138 37.0591 99.2788 37.0591C99.3973 37.0591 99.4989 37.0549 99.5835 37.0464C99.6681 37.0379 99.7464 37.0273 99.8184 37.0146V38.4492C99.6491 38.5042 99.4692 38.5465 99.2788 38.5762C99.0884 38.61 98.881 38.627 98.6567 38.627C98.2293 38.627 97.859 38.5571 97.5459 38.4175C97.237 38.2778 97 38.0578 96.835 37.7573C96.6699 37.4526 96.5874 37.057 96.5874 36.5703V29.9307ZM102.77 31.6318V38.5H100.783V31.6318H102.77ZM100.663 29.8545C100.663 29.5667 100.764 29.3319 100.967 29.1499C101.17 28.9637 101.437 28.8706 101.767 28.8706C102.097 28.8706 102.364 28.9637 102.567 29.1499C102.774 29.3319 102.878 29.5667 102.878 29.8545C102.878 30.138 102.774 30.3729 102.567 30.5591C102.364 30.741 102.097 30.832 101.767 30.832C101.437 30.832 101.17 30.741 100.967 30.5591C100.764 30.3729 100.663 30.138 100.663 29.8545ZM106.287 28.75V38.5H104.3V28.75H106.287ZM109.803 31.6318V38.5H107.816V31.6318H109.803ZM107.696 29.8545C107.696 29.5667 107.797 29.3319 108 29.1499C108.204 28.9637 108.47 28.8706 108.8 28.8706C109.13 28.8706 109.397 28.9637 109.6 29.1499C109.807 29.3319 109.911 29.5667 109.911 29.8545C109.911 30.138 109.807 30.3729 109.6 30.5591C109.397 30.741 109.13 30.832 108.8 30.832C108.47 30.832 108.204 30.741 108 30.5591C107.797 30.3729 107.696 30.138 107.696 29.8545ZM114.888 36.5894C114.888 36.4624 114.847 36.3503 114.767 36.2529C114.691 36.1556 114.551 36.0667 114.348 35.9863C114.149 35.9059 113.868 35.8255 113.504 35.7451C113.161 35.6732 112.842 35.5801 112.545 35.4658C112.249 35.3473 111.991 35.2056 111.771 35.0405C111.551 34.8713 111.38 34.6724 111.257 34.4438C111.134 34.2111 111.073 33.9466 111.073 33.6504C111.073 33.3626 111.134 33.0897 111.257 32.8315C111.384 32.5734 111.566 32.3449 111.803 32.146C112.044 31.9471 112.336 31.7905 112.679 31.6763C113.026 31.562 113.419 31.5049 113.859 31.5049C114.465 31.5049 114.987 31.6001 115.427 31.7905C115.867 31.9767 116.206 32.2391 116.443 32.5776C116.68 32.9119 116.798 33.2949 116.798 33.7266H114.818C114.818 33.5488 114.784 33.3944 114.716 33.2632C114.649 33.132 114.545 33.0304 114.405 32.9585C114.266 32.8823 114.082 32.8442 113.853 32.8442C113.675 32.8442 113.519 32.876 113.383 32.9395C113.252 32.9987 113.148 33.0812 113.072 33.187C113 33.2928 112.964 33.4155 112.964 33.5552C112.964 33.6525 112.986 33.7414 113.028 33.8218C113.074 33.8979 113.144 33.9699 113.237 34.0376C113.335 34.1011 113.459 34.1582 113.612 34.209C113.768 34.2598 113.959 34.3084 114.183 34.355C114.661 34.4438 115.097 34.5687 115.491 34.7295C115.889 34.8903 116.206 35.1125 116.443 35.396C116.684 35.6795 116.805 36.054 116.805 36.5195C116.805 36.8242 116.735 37.1035 116.595 37.3574C116.46 37.6113 116.263 37.8335 116.005 38.0239C115.747 38.2144 115.438 38.3625 115.078 38.4683C114.718 38.5741 114.312 38.627 113.859 38.627C113.212 38.627 112.664 38.5106 112.215 38.2778C111.767 38.0451 111.428 37.7531 111.2 37.4019C110.975 37.0464 110.863 36.6825 110.863 36.3101H112.723C112.732 36.5386 112.789 36.7248 112.895 36.8687C113.005 37.0125 113.146 37.1183 113.32 37.186C113.493 37.2495 113.688 37.2812 113.904 37.2812C114.12 37.2812 114.299 37.2516 114.443 37.1924C114.587 37.1331 114.697 37.0527 114.773 36.9512C114.85 36.8454 114.888 36.7248 114.888 36.5894ZM121.546 36.8623V33.917C121.546 33.7096 121.515 33.5319 121.451 33.3838C121.388 33.2357 121.288 33.1193 121.153 33.0347C121.017 32.95 120.842 32.9077 120.626 32.9077C120.444 32.9077 120.285 32.9395 120.15 33.0029C120.019 33.0664 119.917 33.1574 119.845 33.2759C119.778 33.3944 119.744 33.5404 119.744 33.7139H117.763C117.763 33.4049 117.833 33.1172 117.973 32.8506C118.112 32.584 118.311 32.3491 118.569 32.146C118.832 31.9429 119.145 31.7863 119.509 31.6763C119.873 31.562 120.281 31.5049 120.734 31.5049C121.271 31.5049 121.75 31.5959 122.168 31.7778C122.592 31.9556 122.926 32.2243 123.171 32.584C123.417 32.9395 123.54 33.388 123.54 33.9297V36.8052C123.54 37.2199 123.563 37.5457 123.609 37.7827C123.66 38.0155 123.732 38.2186 123.825 38.3921V38.5H121.826C121.733 38.3011 121.663 38.0557 121.616 37.7637C121.57 37.4674 121.546 37.167 121.546 36.8623ZM121.794 34.3105L121.807 35.4023H120.823C120.603 35.4023 120.412 35.4299 120.251 35.4849C120.095 35.5399 119.968 35.616 119.871 35.7134C119.773 35.8065 119.701 35.9165 119.655 36.0435C119.612 36.1662 119.591 36.3016 119.591 36.4497C119.591 36.5894 119.625 36.7163 119.693 36.8306C119.761 36.9406 119.854 37.0273 119.972 37.0908C120.091 37.1543 120.228 37.186 120.385 37.186C120.643 37.186 120.863 37.1353 121.045 37.0337C121.231 36.9321 121.375 36.8094 121.477 36.6655C121.578 36.5174 121.629 36.3799 121.629 36.2529L122.105 37.0781C122.029 37.2474 121.936 37.423 121.826 37.605C121.716 37.7827 121.576 37.9499 121.407 38.1064C121.237 38.2588 121.032 38.3836 120.791 38.481C120.554 38.5783 120.268 38.627 119.934 38.627C119.502 38.627 119.111 38.5402 118.76 38.3667C118.409 38.189 118.127 37.9456 117.916 37.6367C117.708 37.3278 117.604 36.9723 117.604 36.5703C117.604 36.2106 117.67 35.8911 117.801 35.6118C117.932 35.3325 118.129 35.0955 118.392 34.9009C118.658 34.7062 118.993 34.5602 119.395 34.4629C119.797 34.3613 120.266 34.3105 120.804 34.3105H121.794ZM128.332 31.6318V33.022H124.257V31.6318H128.332ZM125.19 29.9307H127.177V36.3481C127.177 36.5386 127.2 36.6846 127.247 36.7861C127.293 36.8877 127.369 36.9596 127.475 37.002C127.581 37.04 127.716 37.0591 127.881 37.0591C128 37.0591 128.101 37.0549 128.186 37.0464C128.271 37.0379 128.349 37.0273 128.421 37.0146V38.4492C128.252 38.5042 128.072 38.5465 127.881 38.5762C127.691 38.61 127.484 38.627 127.259 38.627C126.832 38.627 126.462 38.5571 126.148 38.4175C125.84 38.2778 125.603 38.0578 125.438 37.7573C125.272 37.4526 125.19 37.057 125.19 36.5703V29.9307ZM132.521 38.627C131.976 38.627 131.487 38.5402 131.055 38.3667C130.624 38.1932 130.257 37.9541 129.957 37.6494C129.661 37.3405 129.434 36.985 129.278 36.583C129.121 36.181 129.043 35.7515 129.043 35.2944V35.0532C129.043 34.5412 129.115 34.0693 129.259 33.6377C129.403 33.2061 129.612 32.8315 129.887 32.5142C130.167 32.1925 130.509 31.945 130.916 31.7715C131.322 31.5938 131.785 31.5049 132.306 31.5049C132.792 31.5049 133.226 31.5853 133.607 31.7461C133.988 31.9027 134.309 32.1291 134.572 32.4253C134.834 32.7173 135.033 33.0706 135.168 33.4854C135.308 33.8958 135.378 34.3571 135.378 34.8691V35.6816H129.843V34.4058H133.436V34.2534C133.436 34.0122 133.391 33.8006 133.302 33.6187C133.218 33.4367 133.091 33.297 132.921 33.1997C132.756 33.0981 132.547 33.0474 132.293 33.0474C132.052 33.0474 131.851 33.0981 131.69 33.1997C131.529 33.3013 131.4 33.4451 131.303 33.6313C131.21 33.8133 131.142 34.027 131.1 34.2725C131.057 34.5137 131.036 34.7739 131.036 35.0532V35.2944C131.036 35.561 131.072 35.8044 131.144 36.0244C131.216 36.2445 131.322 36.4328 131.461 36.5894C131.601 36.7459 131.77 36.8687 131.969 36.9575C132.168 37.0464 132.395 37.0908 132.648 37.0908C132.962 37.0908 133.26 37.0316 133.543 36.9131C133.827 36.7904 134.072 36.5999 134.28 36.3418L135.207 37.4019C135.067 37.605 134.87 37.8018 134.616 37.9922C134.367 38.1784 134.066 38.3307 133.715 38.4492C133.364 38.5677 132.966 38.627 132.521 38.627ZM140.374 36.8433V31.6318H142.367V38.5H140.5L140.374 36.8433ZM140.583 35.4404L141.129 35.4277C141.129 35.889 141.074 36.3143 140.964 36.7036C140.858 37.0929 140.697 37.4315 140.481 37.7192C140.27 38.007 140.005 38.2313 139.688 38.3921C139.375 38.5487 139.009 38.627 138.59 38.627C138.251 38.627 137.94 38.5804 137.657 38.4873C137.377 38.39 137.136 38.2397 136.933 38.0366C136.73 37.8293 136.573 37.5648 136.463 37.2432C136.353 36.9173 136.298 36.528 136.298 36.0752V31.6318H138.279V36.0879C138.279 36.2656 138.3 36.418 138.342 36.5449C138.389 36.6676 138.45 36.7692 138.526 36.8496C138.607 36.93 138.704 36.9893 138.818 37.0273C138.937 37.0654 139.066 37.0845 139.206 37.0845C139.557 37.0845 139.832 37.0125 140.031 36.8687C140.234 36.7205 140.376 36.5238 140.456 36.2783C140.541 36.0286 140.583 35.7493 140.583 35.4404ZM145.642 33.2314V38.5H143.662V31.6318H145.521L145.642 33.2314ZM147.692 31.5811L147.661 33.4282C147.576 33.4155 147.466 33.4049 147.331 33.3965C147.195 33.3838 147.079 33.3774 146.981 33.3774C146.728 33.3774 146.507 33.4092 146.321 33.4727C146.139 33.5319 145.987 33.6208 145.864 33.7393C145.746 33.8577 145.657 34.0059 145.598 34.1836C145.538 34.3571 145.509 34.5581 145.509 34.7866L145.134 34.6025C145.134 34.1497 145.179 33.735 145.268 33.3584C145.356 32.9818 145.486 32.6559 145.655 32.3809C145.824 32.1016 146.031 31.8857 146.277 31.7334C146.522 31.5811 146.802 31.5049 147.115 31.5049C147.216 31.5049 147.32 31.5112 147.426 31.5239C147.532 31.5366 147.62 31.5557 147.692 31.5811ZM152.161 36.5894C152.161 36.4624 152.121 36.3503 152.041 36.2529C151.964 36.1556 151.825 36.0667 151.622 35.9863C151.423 35.9059 151.141 35.8255 150.777 35.7451C150.435 35.6732 150.115 35.5801 149.819 35.4658C149.523 35.3473 149.264 35.2056 149.044 35.0405C148.824 34.8713 148.653 34.6724 148.53 34.4438C148.408 34.2111 148.346 33.9466 148.346 33.6504C148.346 33.3626 148.408 33.0897 148.53 32.8315C148.657 32.5734 148.839 32.3449 149.076 32.146C149.317 31.9471 149.609 31.7905 149.952 31.6763C150.299 31.562 150.693 31.5049 151.133 31.5049C151.738 31.5049 152.261 31.6001 152.701 31.7905C153.141 31.9767 153.479 32.2391 153.716 32.5776C153.953 32.9119 154.072 33.2949 154.072 33.7266H152.091C152.091 33.5488 152.057 33.3944 151.99 33.2632C151.922 33.132 151.818 33.0304 151.679 32.9585C151.539 32.8823 151.355 32.8442 151.126 32.8442C150.949 32.8442 150.792 32.876 150.657 32.9395C150.526 32.9987 150.422 33.0812 150.346 33.187C150.274 33.2928 150.238 33.4155 150.238 33.5552C150.238 33.6525 150.259 33.7414 150.301 33.8218C150.348 33.8979 150.418 33.9699 150.511 34.0376C150.608 34.1011 150.733 34.1582 150.885 34.209C151.042 34.2598 151.232 34.3084 151.457 34.355C151.935 34.4438 152.371 34.5687 152.764 34.7295C153.162 34.8903 153.479 35.1125 153.716 35.396C153.958 35.6795 154.078 36.054 154.078 36.5195C154.078 36.8242 154.008 37.1035 153.869 37.3574C153.733 37.6113 153.536 37.8335 153.278 38.0239C153.02 38.2144 152.711 38.3625 152.352 38.4683C151.992 38.5741 151.586 38.627 151.133 38.627C150.485 38.627 149.937 38.5106 149.489 38.2778C149.04 38.0451 148.702 37.7531 148.473 37.4019C148.249 37.0464 148.137 36.6825 148.137 36.3101H149.997C150.005 36.5386 150.062 36.7248 150.168 36.8687C150.278 37.0125 150.42 37.1183 150.593 37.186C150.767 37.2495 150.961 37.2812 151.177 37.2812C151.393 37.2812 151.573 37.2516 151.717 37.1924C151.861 37.1331 151.971 37.0527 152.047 36.9512C152.123 36.8454 152.161 36.7248 152.161 36.5894Z" fill="#419BB8"/></g><g data-node-id="159:503"><path data-node-id="159:504" d="M171 29.5L175.5 34L171 38.5" stroke="#419BB8" stroke-width="2" stroke-linecap="round" stroke-linejoin="round"/></g></g><defs><linearGradient id="paint0_linear_159_499" x1="-1.15437e-06" y1="6" x2="195" y2="61" gradientUnits="userSpaceOnUse"><stop stop-color="#419BB8" stop-opacity="0.5"/><stop offset="0.526042" stop-color="#0D333F" stop-opacity="0.4"/><stop offset="1" stop-opacity="0.3"/></linearGradient></defs></svg>
