<?xml version="1.0" encoding="UTF-8"?>
<svg xmlns="http://www.w3.org/2000/svg" width="66" height="66" viewBox="0 0 66 66" fill="none"><g data-node-id="211:4828"><path d="M0 12C0 5.37258 5.37258 0 12 0H54C60.6274 0 66 5.37258 66 12V54C66 60.6274 60.6274 66 54 66H12C5.37258 66 0 60.6274 0 54V12Z" fill="#FFEBE6"/><g data-node-id="211:4836"><path data-node-id="211:4820" d="M48.8129 46.1746C46.3989 42.2292 42.6789 39.4002 38.3376 38.0591C40.485 36.8505 42.1534 35.009 43.0866 32.8172C44.0198 30.6255 44.1662 28.2048 43.5032 25.9268C42.8403 23.6488 41.4047 21.6396 39.4169 20.2076C37.4292 18.7756 34.9991 18 32.5 18C30.0009 18 27.5708 18.7756 25.5831 20.2076C23.5953 21.6396 22.1597 23.6488 21.4968 25.9268C20.8338 28.2048 20.9802 30.6255 21.9134 32.8172C22.8466 35.009 24.515 36.8505 26.6624 38.0591C22.3211 39.3987 18.6011 42.2277 16.1871 46.1746C16.0986 46.311 16.0398 46.4629 16.0144 46.6211C15.989 46.7794 15.9973 46.9408 16.0389 47.096C16.0806 47.2512 16.1546 47.3969 16.2568 47.5245C16.359 47.6522 16.4872 47.7592 16.6338 47.8393C16.7804 47.9193 16.9425 47.9708 17.1105 47.9907C17.2785 48.0106 17.4491 47.9985 17.612 47.955C17.775 47.9116 17.9271 47.8378 18.0594 47.7378C18.1917 47.6379 18.3015 47.514 18.3823 47.3733C21.3685 42.4944 26.6466 39.5815 32.5 39.5815C38.3534 39.5815 43.6315 42.4944 46.6177 47.3733C46.6985 47.514 46.8083 47.6379 46.9406 47.7378C47.0729 47.8378 47.225 47.9116 47.388 47.955C47.5509 47.9985 47.7215 48.0106 47.8895 47.9907C48.0575 47.9708 48.2196 47.9193 48.3662 47.8393C48.5128 47.7592 48.641 47.6522 48.7432 47.5245C48.8453 47.3969 48.9194 47.2512 48.9611 47.096C49.0027 46.9408 49.011 46.7794 48.9856 46.6211C48.9602 46.4629 48.9014 46.311 48.8129 46.1746ZM23.624 28.7928C23.624 27.1331 24.1445 25.5108 25.1198 24.1309C26.0951 22.7509 27.4814 21.6754 29.1033 21.0403C30.7252 20.4052 32.5098 20.239 34.2316 20.5628C35.9534 20.8866 37.535 21.6858 38.7763 22.8593C40.0177 24.0328 40.863 25.528 41.2055 27.1557C41.548 28.7835 41.3722 30.4707 40.7004 32.0039C40.0286 33.5372 38.8909 34.8478 37.4313 35.7698C35.9716 36.6918 34.2555 37.184 32.5 37.184C30.1467 37.1816 27.8905 36.2968 26.2265 34.7236C24.5624 33.1505 23.6265 31.0175 23.624 28.7928Z" fill="#202020"/></g></g></svg>
