<?xml version="1.0" encoding="UTF-8"?>
<svg xmlns="http://www.w3.org/2000/svg" width="195" height="58" viewBox="0 0 195 58" fill="none"><g data-node-id="167:519"><rect y="6" width="195" height="47" rx="12" fill="#FFDB99" fill-opacity="0.44"/><rect y="6" width="195" height="47" rx="12" fill="url(#paint0_linear_167_519)" fill-opacity="0.2"/><g data-node-id="165:512"><g data-node-id="I165:512;5902:7678"><path data-node-id="I165:512;5902:7678;5902:7034" d="M42.0407 35.5626C40.8508 33.5055 39.0172 32.0305 36.8774 31.3313C37.9358 30.7012 38.7582 29.741 39.2182 28.5983C39.6781 27.4556 39.7503 26.1935 39.4235 25.0058C39.0968 23.8181 38.3892 22.7705 37.4094 22.0239C36.4296 21.2773 35.2318 20.8729 34 20.8729C32.7682 20.8729 31.5704 21.2773 30.5907 22.0239C29.6109 22.7705 28.9033 23.8181 28.5765 25.0058C28.2498 26.1935 28.3219 27.4556 28.7819 28.5983C29.2419 29.741 30.0642 30.7012 31.1227 31.3313C28.9828 32.0297 27.1492 33.5047 25.9594 35.5626C25.9158 35.6337 25.8868 35.7129 25.8743 35.7954C25.8617 35.8779 25.8659 35.9621 25.8864 36.043C25.9069 36.1239 25.9434 36.1998 25.9938 36.2664C26.0441 36.333 26.1073 36.3888 26.1796 36.4305C26.2519 36.4722 26.3318 36.4991 26.4146 36.5095C26.4974 36.5198 26.5814 36.5135 26.6618 36.4909C26.7421 36.4682 26.8171 36.4297 26.8823 36.3776C26.9475 36.3255 27.0016 36.2609 27.0414 36.1876C28.5133 33.6438 31.1149 32.1251 34 32.1251C36.8852 32.1251 39.4867 33.6438 40.9586 36.1876C40.9985 36.2609 41.0526 36.3255 41.1178 36.3776C41.183 36.4297 41.258 36.4682 41.3383 36.4909C41.4186 36.5135 41.5027 36.5198 41.5855 36.5095C41.6683 36.4991 41.7482 36.4722 41.8205 36.4305C41.8927 36.3888 41.9559 36.333 42.0063 36.2664C42.0566 36.1998 42.0932 36.1239 42.1137 36.043C42.1342 35.9621 42.1383 35.8779 42.1258 35.7954C42.1132 35.7129 42.0843 35.6337 42.0407 35.5626ZM29.625 26.5001C29.625 25.6348 29.8816 24.7889 30.3623 24.0694C30.8431 23.35 31.5264 22.7892 32.3258 22.4581C33.1252 22.1269 34.0049 22.0403 34.8535 22.2091C35.7022 22.3779 36.4818 22.7946 37.0936 23.4065C37.7055 24.0183 38.1222 24.7979 38.291 25.6465C38.4598 26.4952 38.3731 27.3749 38.042 28.1743C37.7109 28.9737 37.1501 29.657 36.4306 30.1377C35.7112 30.6185 34.8653 30.8751 34 30.8751C32.8401 30.8738 31.728 30.4125 30.9078 29.5923C30.0876 28.7721 29.6263 27.66 29.625 26.5001Z" fill="#202020"/></g></g></g><defs><linearGradient id="paint0_linear_167_519" x1="-1.15437e-06" y1="10.1471" x2="180.462" y2="83.7888" gradientUnits="userSpaceOnUse"><stop stop-color="#B88641" stop-opacity="0.5"/><stop offset="0.526042" stop-color="#B88641" stop-opacity="0.4"/><stop offset="1" stop-color="#B88641" stop-opacity="0.3"/></linearGradient></defs></svg>
